<svg width="60" height="60" viewBox="0 0 60 60" fill="none" xmlns="http://www.w3.org/2000/svg">
<path d="M42.0913 17H17.9087C15.7536 17 14 19.0987 14 21.678V38.322C14 40.9013 15.7536 43 17.9087 43H42.0913C44.2464 43 46 40.9013 46 38.322V21.6785C46.0004 19.0987 44.2469 17 42.0913 17ZM40.1813 20.0519L30 27.9023L19.8187 20.0519H40.1813ZM42.0913 39.9486H17.9087C17.1595 39.9486 16.55 39.2187 16.55 38.3225V21.765L29.2133 31.5107C29.2303 31.5234 29.2486 31.532 29.266 31.5437C29.2843 31.5559 29.303 31.5676 29.3217 31.5788C29.4199 31.6394 29.521 31.6882 29.6243 31.7202C29.6349 31.7238 29.6456 31.7253 29.6562 31.7284C29.7697 31.7604 29.8844 31.7803 29.9992 31.7803H30C30.0008 31.7803 30.0017 31.7803 30.0017 31.7803C30.1165 31.7803 30.2312 31.7609 30.3447 31.7284C30.3553 31.7253 30.3659 31.7238 30.3766 31.7202C30.4798 31.6882 30.5806 31.6394 30.6792 31.5788C30.6979 31.5676 30.7166 31.5559 30.7348 31.5437C30.7523 31.532 30.7705 31.5234 30.7875 31.5107L43.4508 21.765V38.322C43.4504 39.2187 42.8405 39.9486 42.0913 39.9486Z" fill="#F60069"/>
<circle cx="30" cy="30" r="29.5" stroke="#FFC1EA"/>
</svg>
