<svg width="60" height="60" viewBox="0 0 60 60" fill="none" xmlns="http://www.w3.org/2000/svg">
<path fill-rule="evenodd" clip-rule="evenodd" d="M29.999 15C21.7162 15 15 21.8854 15 30.3808C15 37.1749 19.2975 42.9395 25.2591 44.9735C26.0091 45.1148 26.2828 44.6399 26.2828 44.2323C26.2828 43.8671 26.2697 42.9001 26.2622 41.6168C22.0894 42.5463 21.2091 39.555 21.2091 39.555C20.5275 37.7786 19.5441 37.3056 19.5441 37.3056C18.1819 36.3511 19.6472 36.3703 19.6472 36.3703C21.1519 36.4789 21.944 37.9554 21.944 37.9554C23.2828 40.3057 25.455 39.627 26.31 39.2329C26.4459 38.239 26.8341 37.5613 27.2625 37.1768C23.9316 36.7885 20.43 35.4697 20.43 29.5763C20.43 27.897 21.0141 26.5243 21.9741 25.4487C21.8194 25.0594 21.3047 23.4964 22.1203 21.3788C22.1203 21.3788 23.3803 20.9655 26.2453 22.9552C27.4425 22.614 28.725 22.4439 30.001 22.4371C31.275 22.4439 32.5584 22.614 33.7566 22.9552C36.6197 20.9655 37.8769 21.3788 37.8769 21.3788C38.6953 23.4964 38.1806 25.0594 38.0259 25.4487C38.9878 26.5243 39.5681 27.897 39.5681 29.5763C39.5681 35.4841 36.0609 36.7846 32.7197 37.1653C33.2578 37.6401 33.7378 38.5783 33.7378 40.0135C33.7378 42.0696 33.7191 43.7277 33.7191 44.2323C33.7191 44.6437 33.9891 45.1224 34.7503 44.9715C40.7063 42.9337 45 37.173 45 30.3808C45 21.8854 38.2837 15 29.999 15Z" fill="#F60069"/>
<circle cx="30" cy="30" r="29.5" stroke="#FFC1EA"/>
</svg>
