<svg width="96" height="96" viewBox="0 0 96 96" fill="none" xmlns="http://www.w3.org/2000/svg">
<path d="M35.1729 36.2227H25.5369C25.1092 36.2227 24.7627 36.5701 24.7627 36.9986V68.0235C24.7627 68.4521 25.1092 68.7994 25.5369 68.7994H35.1729C35.6006 68.7994 35.9471 68.4521 35.9471 68.0235V36.9986C35.9471 36.5701 35.6006 36.2227 35.1729 36.2227Z" fill="#F60069"/>
<path d="M30.3586 20.8C26.8524 20.8 24 23.6557 24 27.1657C24 30.6773 26.8524 33.534 30.3586 33.534C33.862 33.534 36.7121 30.6771 36.7121 27.1657C36.7122 23.6557 33.862 20.8 30.3586 20.8Z" fill="#F60069"/>
<path d="M59.6834 35.4517C55.8132 35.4517 52.9523 37.1191 51.217 39.0137V36.9987C51.217 36.5702 50.8705 36.2228 50.4428 36.2228H41.2146C40.787 36.2228 40.4404 36.5702 40.4404 36.9987V68.0236C40.4404 68.4522 40.787 68.7995 41.2146 68.7995H50.8296C51.2573 68.7995 51.6038 68.4522 51.6038 68.0236V52.6734C51.6038 47.5008 53.0057 45.4856 56.6035 45.4856C60.5219 45.4856 60.8333 48.7162 60.8333 52.9396V68.0237C60.8333 68.4523 61.1798 68.7996 61.6075 68.7996H71.226C71.6537 68.7996 72.0002 68.4523 72.0002 68.0237V51.006C72.0002 43.3145 70.5368 35.4517 59.6834 35.4517Z" fill="#F60069"/>
<circle cx="48" cy="48" r="47.5" stroke="#FFC1EA"/>
</svg>
