<svg width="76" height="76" viewBox="0 0 76 76" fill="none" xmlns="http://www.w3.org/2000/svg">
<path d="M27.8452 28.6763H20.2167C19.8781 28.6763 19.6038 28.9513 19.6038 29.2905V53.8519C19.6038 54.1912 19.8781 54.4662 20.2167 54.4662H27.8452C28.1838 54.4662 28.4581 54.1912 28.4581 53.8519V29.2905C28.4581 28.9513 28.1838 28.6763 27.8452 28.6763Z" fill="#F60069"/>
<path d="M24.0339 16.4668C21.2582 16.4668 19 18.7275 19 21.5063C19 24.2863 21.2582 26.5478 24.0339 26.5478C26.8074 26.5478 29.0637 24.2862 29.0637 21.5063C29.0638 18.7275 26.8074 16.4668 24.0339 16.4668Z" fill="#F60069"/>
<path d="M47.2494 28.0659C44.1855 28.0659 41.9206 29.386 40.5469 30.8858V29.2906C40.5469 28.9514 40.2725 28.6764 39.9339 28.6764H32.6283C32.2897 28.6764 32.0154 28.9514 32.0154 29.2906V53.852C32.0154 54.1913 32.2897 54.4663 32.6283 54.4663H40.2402C40.5787 54.4663 40.8531 54.1913 40.8531 53.852V41.6998C40.8531 37.6048 41.9629 36.0095 44.8112 36.0095C47.9132 36.0095 48.1597 38.567 48.1597 41.9105V53.8521C48.1597 54.1915 48.434 54.4664 48.7726 54.4664H56.3873C56.7259 54.4664 57.0002 54.1915 57.0002 53.8521V40.3798C57.0002 34.2907 55.8417 28.0659 47.2494 28.0659Z" fill="#F60069"/>
<circle cx="38" cy="38" r="37.5" stroke="#FFC1EA"/>
</svg>
