<svg width="36" height="36" viewBox="0 0 36 36" fill="none" xmlns="http://www.w3.org/2000/svg">
<g clip-path="url(#clip0_20_638)">
<path d="M33.138 27.5923C31.1807 27.5435 29.6638 27.7393 28.3915 28.2774C28.0246 28.4242 27.4373 28.4243 27.3883 28.8891C27.5842 29.0849 27.6086 29.403 27.7799 29.672C28.0737 30.1612 28.5872 30.822 29.0522 31.1645C29.5659 31.5559 30.0798 31.9473 30.6179 32.2899C31.5721 32.8772 32.6487 33.2196 33.5784 33.8068C34.1168 34.1491 34.6548 34.5898 35.1931 34.9568C35.4623 35.1523 35.6334 35.4705 35.976 35.5928V35.5194C35.8047 35.2992 35.7558 34.9812 35.5846 34.7365C35.3401 34.4918 35.0953 34.2716 34.8506 34.0269C34.1411 33.0728 33.2603 32.241 32.3061 31.5559C31.5233 31.0176 29.8106 30.2837 29.4925 29.3784C29.4925 29.3784 29.468 29.354 29.4436 29.3296C29.9818 29.2806 30.6179 29.0849 31.1318 28.938C31.9637 28.7178 32.7221 28.7667 33.5784 28.5466C33.9698 28.4487 34.3613 28.3264 34.7527 28.2041V27.984C34.3125 27.5434 33.9943 26.9564 33.5294 26.5404C32.2817 25.4637 30.9115 24.4118 29.4925 23.5311C28.734 23.0418 27.7553 22.7236 26.948 22.3078C26.6545 22.1608 26.1651 22.0876 25.9939 21.8429C25.5534 21.3046 25.3087 20.5952 24.9907 19.959C24.2815 18.6132 23.5961 17.121 22.9845 15.702C22.5443 14.7478 22.2751 13.7935 21.7368 12.9128C19.2168 8.75361 16.4766 6.23364 12.2684 3.76249C11.3632 3.24876 10.2867 3.02851 9.13681 2.75944C8.52532 2.73488 7.91351 2.68608 7.30186 2.66152C6.91047 2.49022 6.51892 2.02547 6.17633 1.80521C4.78205 0.924342 1.18536 -0.983822 0.157765 1.53615C-0.502848 3.12644 1.1364 4.69216 1.69908 5.49966C2.11519 6.06235 2.65332 6.6984 2.94694 7.33461C3.11824 7.75025 3.16704 8.19092 3.33834 8.63128C3.72988 9.70753 4.09672 10.9066 4.6106 11.9098C4.87982 12.4235 5.17328 12.9618 5.51587 13.4265C5.71157 13.6956 6.054 13.8181 6.12752 14.2585C5.78509 14.7478 5.76053 15.4818 5.56468 16.0934C4.68396 18.858 5.02655 22.2833 6.27425 24.3139C6.66564 24.9254 7.59547 26.2713 8.84318 25.7575C9.94415 25.3171 9.69949 23.9225 10.0175 22.6992C10.091 22.4054 10.0421 22.2099 10.1888 22.0142C10.1889 22.0386 10.1888 22.0632 10.1888 22.0632C10.5314 22.7482 10.8738 23.4088 11.1919 24.0938C11.9504 25.2925 13.2715 26.5404 14.3724 27.3723C14.9598 27.8125 15.4246 28.571 16.1586 28.8403V28.7667H16.1096C15.9627 28.5465 15.7426 28.4487 15.5469 28.2774C15.1066 27.8371 14.6171 27.2988 14.2747 26.8095C13.2472 25.4393 12.3418 23.9225 11.5344 22.3566C11.143 21.5983 10.8005 20.7663 10.4824 20.008C10.3355 19.7142 10.3355 19.274 10.0909 19.1272C9.7239 19.6654 9.18577 20.1303 8.91655 20.7909C8.45195 21.8429 8.40283 23.1396 8.23153 24.4852C8.13376 24.5098 8.18257 24.4852 8.13361 24.5342C7.35082 24.3383 7.0816 23.5311 6.78797 22.8459C6.05399 21.1089 5.93166 18.3197 6.56787 16.3137C6.73917 15.7998 7.47314 14.1851 7.17952 13.6958C7.03279 13.2308 6.54331 12.9618 6.27425 12.5948C5.95622 12.1299 5.61364 11.5428 5.39354 11.0289C4.80629 9.65888 4.51267 8.14196 3.87662 6.77177C3.583 6.13556 3.06927 5.47511 2.65332 4.88801C2.18856 4.2274 1.67468 3.76249 1.30769 2.97954C1.18551 2.71048 1.01406 2.27012 1.20976 1.9765C1.25872 1.7808 1.35649 1.70744 1.55234 1.65847C1.87037 1.38925 2.77564 1.73184 3.09366 1.87857C3.99894 2.24541 4.75732 2.58815 5.51586 3.10187C5.85829 3.34653 6.22528 3.81145 6.66563 3.93378H7.17951C7.96245 4.10491 8.84317 3.98274 9.57715 4.20284C10.874 4.61864 12.0481 5.23044 13.1003 5.89106C16.3054 7.92169 18.9476 10.8088 20.7337 14.2585C21.0274 14.821 21.1495 15.335 21.4188 15.9221C21.9326 17.121 22.5687 18.3443 23.0824 19.5186C23.5961 20.6684 24.0854 21.8429 24.8194 22.7971C25.1866 23.3107 26.6544 23.5799 27.315 23.8492C27.8043 24.0693 28.5628 24.2651 29.0032 24.5342C29.8349 25.0477 30.6669 25.6351 31.4498 26.1978C31.8413 26.4913 33.0645 27.1031 33.138 27.5923Z" fill="#00546B"/>
<path d="M8.18249 6.3313C7.76653 6.3313 7.47307 6.38042 7.17944 6.45379C7.17944 6.45379 7.17944 6.47834 7.17944 6.50275H7.22841C7.42426 6.89414 7.76653 7.16336 8.01119 7.50579C8.20705 7.89718 8.37818 8.28873 8.57404 8.68028C8.59844 8.65572 8.62284 8.63132 8.62284 8.63132C8.96558 8.3865 9.13672 7.99511 9.13672 7.40802C8.98983 7.23673 8.96543 7.06543 8.8431 6.89414C8.69636 6.64932 8.37818 6.52715 8.18249 6.3313Z" fill="#00546B"/>
</g>
<defs>
<clipPath id="clip0_20_638">
<rect width="36" height="36" fill="white"/>
</clipPath>
</defs>
</svg>
