<svg width="29" height="38" viewBox="0 0 29 38" fill="none" xmlns="http://www.w3.org/2000/svg">
<path d="M28.1827 2.12687C28.2094 2.5746 28.1022 3.02014 27.8748 3.40676C27.6475 3.79338 27.3102 4.1036 26.9059 4.29792C26.5017 4.49224 26.0488 4.56188 25.6048 4.49796C25.1609 4.43405 24.746 4.23947 24.413 3.939C24.08 3.63854 23.8439 3.24578 23.7348 2.81072C23.6258 2.37566 23.6486 1.91798 23.8005 1.49595C23.9524 1.07392 24.2264 0.70663 24.5877 0.440835C24.949 0.17504 25.3812 0.0227646 25.8293 0.00339408C26.1232 -0.0128274 26.4174 0.0292098 26.6949 0.127088C26.9725 0.224967 27.228 0.376756 27.4467 0.573725C27.6655 0.770695 27.8431 1.00896 27.9694 1.27482C28.0957 1.54067 28.1682 1.82888 28.1827 2.12286V2.12687Z" fill="#767677"/>
<path d="M15.0009 28.2327C9.00084 28.2327 3.72826 26.0798 1.00171 22.8999C2.05963 25.7605 3.96848 28.2283 6.47135 29.9712C8.97421 31.7141 11.9509 32.6485 15.0009 32.6485C18.0508 32.6485 21.0275 31.7141 23.5304 29.9712C26.0332 28.2283 27.9421 25.7605 29 22.8999C26.2801 26.0784 21.0276 28.2327 15.0009 28.2327Z" fill="#F37726"/>
<path d="M15.0009 7.55594C21.0009 7.55594 26.2735 9.70883 29 12.8887C27.9421 10.0281 26.0332 7.5603 23.5304 5.81738C21.0275 4.07447 18.0508 3.14014 15.0009 3.14014C11.9509 3.14014 8.97421 4.07447 6.47135 5.81738C3.96848 7.5603 2.05963 10.0281 1.00171 12.8887C3.72826 9.70214 8.97544 7.55594 15.0009 7.55594Z" fill="#F37726"/>
<path d="M6.74373 34.4216C6.77746 35.1207 6.54997 35.8075 6.10548 36.3482C5.66099 36.889 5.03128 37.2451 4.33879 37.3474C3.64631 37.4496 2.94054 37.2907 2.35874 36.9015C1.77693 36.5122 1.36067 35.9205 1.1909 35.2414C1.02112 34.5624 1.10997 33.8444 1.44017 33.2272C1.77036 32.6099 2.3183 32.1376 2.97743 31.9019C3.63656 31.6663 4.35978 31.6842 5.00645 31.9521C5.65312 32.2201 6.17703 32.719 6.47629 33.3518C6.6343 33.6875 6.72515 34.0509 6.74373 34.4216Z" fill="#9E9E9E"/>
<path d="M1.68349 6.8312C1.36035 6.83989 1.04186 6.75286 0.768055 6.58106C0.494246 6.40925 0.277339 6.16033 0.1446 5.86559C0.0118619 5.57085 -0.0307827 5.24345 0.022028 4.92455C0.0748386 4.60564 0.220747 4.30947 0.441411 4.07325C0.662075 3.83704 0.947645 3.67133 1.26222 3.59696C1.5768 3.52259 1.90634 3.54287 2.20942 3.65526C2.5125 3.76766 2.77559 3.96714 2.96562 4.22863C3.15565 4.49012 3.26413 4.80196 3.27743 5.12493C3.29009 5.56196 3.12978 5.98633 2.83131 6.30583C2.53285 6.62532 2.12037 6.81412 1.68349 6.8312Z" fill="#616262"/>
</svg>
