<svg width="28" height="40" viewBox="0 0 28 40" fill="none" xmlns="http://www.w3.org/2000/svg">
<path d="M13.9829 39.6666L2.54817 36.4807L0 7.79541H28L25.4491 36.4762L13.9829 39.6666Z" fill="#0B3753"/>
<path d="M23.2653 34.6499L25.4452 10.1409H14V37.228L23.2653 34.6499Z" fill="#42BDDF"/>
<path d="M5.84155 20.7795L6.15572 24.2976H13.9999V20.7795H5.84155Z" fill="#EBEBEB"/>
<path d="M5.21045 13.6592L5.5291 17.1773H14.0001V13.6592H5.21045Z" fill="#EBEBEB"/>
<path d="M14.0001 29.9169L13.9847 29.921L10.0808 28.863L9.83128 26.0571H6.3125L6.80359 31.5811L13.984 33.5817L14.0001 33.5772V29.9169Z" fill="#EBEBEB"/>
<path d="M6.5896 0H10.8351V1.7819H8.36501V3.5638H10.8351V5.3457H6.5896V0Z" fill="white"/>
<path d="M11.6843 0H15.9299V1.54948H13.4597V1.85937H15.9299V5.42317H11.6843V3.79622H14.1545V3.48633H11.6843V0Z" fill="white"/>
<path d="M16.7791 0H21.0246V1.54948H18.5545V1.85937H21.0246V5.42317H16.7791V3.79622H19.2492V3.48633H16.7791V0Z" fill="white"/>
<path d="M22.1358 20.78L22.7686 13.6592H13.9878V17.1773H18.9271L18.6082 20.78H13.9878V24.2981H18.3042L17.8973 28.8608L13.9878 29.9199V33.5801L21.1739 31.5811L21.2266 30.9868L22.0503 21.7247L22.1358 20.78Z" fill="white"/>
</svg>
