<svg width="30" height="30" viewBox="0 0 30 30" fill="none" xmlns="http://www.w3.org/2000/svg">
<path d="M25.835 19.1189V25.9719H4.16497V19.1189H0V27.9864C0 29.0982 0.931067 29.9999 2.08559 29.9999H27.9144C29.0679 29.9999 30 29.0992 30 27.9864V19.1189H25.835Z" fill="#F60069"/>
<path d="M14.6188 18.4395L8.65589 11.4694C8.65589 11.4694 7.74861 10.6408 8.73244 10.6408C9.71627 10.6408 12.0926 10.6408 12.0926 10.6408C12.0926 10.6408 12.0926 10.0834 12.0926 9.22377C12.0926 6.77297 12.0926 2.3127 12.0926 0.494363C12.0926 0.494363 11.9591 0 12.7288 0C13.5047 0 16.9031 0 17.4586 0C18.0131 0 18.0007 0.416305 18.0007 0.416305C18.0007 2.1796 18.0007 6.79399 18.0007 9.16472C18.0007 9.93329 18.0007 10.4317 18.0007 10.4317C18.0007 10.4317 19.9063 10.4317 21.1022 10.4317C22.296 10.4317 21.397 11.2993 21.397 11.2993C21.397 11.2993 16.3237 17.8141 15.6161 18.4976C15.1071 18.9929 14.6188 18.4395 14.6188 18.4395Z" fill="#F60069"/>
</svg>
