<svg width="31" height="34" viewBox="0 0 31 34" fill="none" xmlns="http://www.w3.org/2000/svg">
<path d="M26.8667 2.125C27.4148 2.125 27.9404 2.34888 28.328 2.7474C28.7156 3.14591 28.9333 3.68641 28.9333 4.25V29.75C28.9333 30.3136 28.7156 30.8541 28.328 31.2526C27.9404 31.6511 27.4148 31.875 26.8667 31.875H4.13333C3.58522 31.875 3.05955 31.6511 2.67198 31.2526C2.2844 30.8541 2.06667 30.3136 2.06667 29.75V4.25C2.06667 3.68641 2.2844 3.14591 2.67198 2.7474C3.05955 2.34888 3.58522 2.125 4.13333 2.125H26.8667ZM4.13333 0C3.03711 0 1.98578 0.447767 1.21063 1.2448C0.435475 2.04183 0 3.12283 0 4.25V29.75C0 30.8772 0.435475 31.9582 1.21063 32.7552C1.98578 33.5522 3.03711 34 4.13333 34H26.8667C27.9629 34 29.0142 33.5522 29.7894 32.7552C30.5645 31.9582 31 30.8772 31 29.75V4.25C31 3.12283 30.5645 2.04183 29.7894 1.2448C29.0142 0.447767 27.9629 0 26.8667 0L4.13333 0Z" fill="#656464"/>
<path d="M12.4 6.375C12.4 5.81141 12.6177 5.27091 13.0053 4.8724C13.3929 4.47388 13.9185 4.25 14.4666 4.25H16.5333C17.0814 4.25 17.6071 4.47388 17.9947 4.8724C18.3822 5.27091 18.6 5.81141 18.6 6.375V12.75C18.6 13.3136 18.3822 13.8541 17.9947 14.2526C17.6071 14.6511 17.0814 14.875 16.5333 14.875H14.4666C13.9185 14.875 13.3929 14.6511 13.0053 14.2526C12.6177 13.8541 12.4 13.3136 12.4 12.75V6.375ZM4.1333 6.375C4.1333 5.81141 4.35104 5.27091 4.73861 4.8724C5.12619 4.47388 5.65185 4.25 6.19997 4.25H8.26663C8.81475 4.25 9.34041 4.47388 9.72799 4.8724C10.1156 5.27091 10.3333 5.81141 10.3333 6.375V21.25C10.3333 21.8136 10.1156 22.3541 9.72799 22.7526C9.34041 23.1511 8.81475 23.375 8.26663 23.375H6.19997C5.65185 23.375 5.12619 23.1511 4.73861 22.7526C4.35104 22.3541 4.1333 21.8136 4.1333 21.25V6.375ZM20.6666 6.375C20.6666 5.81141 20.8844 5.27091 21.2719 4.8724C21.6595 4.47388 22.1852 4.25 22.7333 4.25H24.8C25.3481 4.25 25.8737 4.47388 26.2613 4.8724C26.6489 5.27091 26.8666 5.81141 26.8666 6.375V27.625C26.8666 28.1886 26.6489 28.7291 26.2613 29.1276C25.8737 29.5261 25.3481 29.75 24.8 29.75H22.7333C22.1852 29.75 21.6595 29.5261 21.2719 29.1276C20.8844 28.7291 20.6666 28.1886 20.6666 27.625V6.375Z" fill="#656464"/>
</svg>
