<svg width="34" height="34" viewBox="0 0 34 34" fill="none" xmlns="http://www.w3.org/2000/svg">
<g clip-path="url(#clip0_20_670)">
<path d="M16.9999 33.1356C25.9114 33.1356 33.1356 25.9114 33.1356 16.9999C33.1356 8.08846 25.9114 0.864258 16.9999 0.864258C8.0882 0.864258 0.864258 8.08846 0.864258 16.9999C0.864258 25.9116 8.08846 33.1356 16.9999 33.1356Z" fill="white"/>
<path d="M17 0C7.61122 0 0 7.61122 0 17C0 26.3888 7.61122 34 17 34C26.3888 34 34 26.3888 34 17C34 7.61122 26.3888 0 17 0ZM17 1.72895C25.4341 1.72895 32.2713 8.56614 32.2713 17C32.2713 25.4341 25.4341 32.2713 17 32.2713C8.56587 32.2713 1.72869 25.4341 1.72869 17C1.72869 8.56587 8.56587 1.72895 17 1.72895Z" fill="#4000BF"/>
<path d="M17.192 4.89819C23.8756 4.89819 29.2938 10.3164 29.2938 17.0001C29.2938 23.6837 23.8756 29.1019 17.192 29.1019C10.5086 29.1019 5.09034 23.6837 5.09034 17.0001C5.08825 15.4176 5.39756 13.8502 6.00064 12.3872C6.85701 13.5536 8.23853 14.3109 9.79642 14.3109C12.3958 14.3109 14.5028 12.2039 14.5028 9.60454C14.5028 8.04638 13.7457 6.66513 12.5791 5.80876C14.0422 5.20578 15.6095 4.89621 17.192 4.89819Z" fill="url(#paint0_linear_20_670)"/>
</g>
<defs>
<linearGradient id="paint0_linear_20_670" x1="17.1922" y1="29.1019" x2="17.1922" y2="4.89819" gradientUnits="userSpaceOnUse">
<stop stop-color="#7400E1"/>
<stop offset="1" stop-color="#4000BF"/>
</linearGradient>
<clipPath id="clip0_20_670">
<rect width="34" height="34" fill="white"/>
</clipPath>
</defs>
</svg>
