<svg width="29" height="29" viewBox="0 0 29 29" fill="none" xmlns="http://www.w3.org/2000/svg">
<path d="M22.5238 1.97314L20.7483 0H6.75934C5.75047 0 5.36125 0.748549 5.36125 1.33246V6.59736H7.32277V2.39585C7.32277 2.17158 7.51055 1.98406 7.72863 1.98406H17.7374C17.958 1.98406 18.068 2.02327 18.068 2.20329V9.19264H25.1927C25.4727 9.19264 25.5811 9.3367 25.5811 9.55042V26.615C25.5811 26.9727 25.437 27.0267 25.2189 27.0267H7.72863C7.50865 27.0267 7.32277 26.8353 7.32277 26.615V25.0556H5.37344V27.5132C5.34799 28.3824 5.81198 29 6.75934 29H26.1881C27.203 29 27.5499 28.2647 27.5499 27.595V9.34375V7.52067L27.0432 6.97044L22.5238 1.97314ZM20.0623 2.20329L20.6227 2.83261L24.3871 6.97044L24.5945 7.22106H20.7483C20.4578 7.22106 20.2741 7.1731 20.197 7.0772C20.1199 6.9813 20.075 6.82975 20.0623 6.62255V2.20329ZM18.4804 15.4677H25.1181V17.4012H18.4804V15.4677ZM18.4804 11.6008H25.1181V13.5342H18.4804V11.6008ZM18.4804 19.3347H25.1181V21.2681H18.4804V19.3347ZM1.44995 8.15731V23.625H16.6238V8.15731H1.44995ZM9.03782 17.1537L8.1085 18.5709H9.03782V20.2995H4.37247L7.75961 15.2125L4.75937 10.6341H7.26465L9.03976 13.2965L10.813 10.6341H13.3163L10.3123 15.2106L13.7013 20.2995H11.1012L9.03782 17.1537Z" fill="#6D9A00"/>
</svg>
