<svg width="34" height="34" viewBox="0 0 34 34" fill="none" xmlns="http://www.w3.org/2000/svg">
<path d="M31.875 17.0001C31.8748 20.4415 30.6813 23.7764 28.4979 26.4364C26.3145 29.0965 23.2763 30.9173 19.901 31.5884C16.5257 32.2596 13.0221 31.7396 9.98713 30.1172C6.9522 28.4947 4.57371 25.8701 3.25695 22.6906C1.94018 19.5111 1.76659 15.9734 2.76577 12.6802C3.76495 9.38707 5.87507 6.54225 8.73659 4.63047C11.5981 2.71869 15.034 1.85825 18.4588 2.19575C21.8836 2.53325 25.0854 4.04781 27.5188 6.48137C28.9021 7.86121 29.999 9.50083 30.7466 11.306C31.4942 13.1112 31.8777 15.0463 31.875 17.0001Z" fill="white"/>
<path d="M29.6437 16.9999C29.6435 19.9251 28.629 22.7597 26.7731 25.0208C24.9173 27.2819 22.3348 28.8295 19.4658 29.4C16.5968 29.9704 13.6187 29.5285 11.039 28.1494C8.45932 26.7703 6.43761 24.5394 5.31835 21.8368C4.1991 19.1342 4.05155 16.1272 4.90086 13.328C5.75016 10.5288 7.54376 8.11072 9.97606 6.48571C12.4084 4.8607 15.3288 4.12932 18.2399 4.41619C21.151 4.70307 23.8726 5.99044 25.9409 8.05897C27.1167 9.23185 28.0491 10.6255 28.6846 12.1599C29.32 13.6943 29.646 15.3391 29.6437 16.9999Z" fill="#6D9A00"/>
<path d="M12.3888 16.982C12.3831 16.8442 12.406 16.7067 12.4562 16.5782C12.5064 16.4498 12.5826 16.3331 12.6802 16.2356C12.7778 16.1382 12.8945 16.062 13.023 16.012C13.1516 15.9619 13.2891 15.9391 13.4269 15.945C13.6319 15.9452 13.8323 16.0062 14.0027 16.1203C14.1731 16.2343 14.3058 16.3964 14.3842 16.5859C14.4625 16.7754 14.4829 16.9839 14.4427 17.1849C14.4026 17.386 14.3038 17.5707 14.1587 17.7156C14.0136 17.8606 13.8288 17.9592 13.6277 17.9991C13.4266 18.0391 13.2181 18.0185 13.0287 17.94C12.8393 17.8614 12.6774 17.7285 12.5635 17.558C12.4496 17.3875 12.3888 17.187 12.3888 16.982Z" fill="white"/>
<path d="M15.9703 16.982C15.9646 16.8442 15.9876 16.7067 16.0377 16.5782C16.0879 16.4498 16.1642 16.3331 16.2617 16.2356C16.3593 16.1382 16.4761 16.062 16.6046 16.012C16.7331 15.9619 16.8706 15.9391 17.0084 15.945C17.2135 15.9452 17.4138 16.0062 17.5842 16.1203C17.7546 16.2343 17.8874 16.3964 17.9657 16.5859C18.044 16.7754 18.0644 16.9839 18.0243 17.1849C17.9841 17.386 17.8853 17.5707 17.7402 17.7156C17.5952 17.8606 17.4104 17.9592 17.2093 17.9991C17.0081 18.0391 16.7997 18.0185 16.6102 17.94C16.4208 17.8614 16.2589 17.7285 16.145 17.558C16.0311 17.3875 15.9703 17.187 15.9703 16.982Z" fill="white"/>
<path d="M19.5499 16.982C19.5442 16.8442 19.5672 16.7067 19.6173 16.5782C19.6675 16.4498 19.7438 16.3331 19.8413 16.2356C19.9389 16.1382 20.0556 16.062 20.1842 16.012C20.3127 15.9619 20.4502 15.9391 20.588 15.945C20.793 15.9452 20.9934 16.0062 21.1638 16.1203C21.3342 16.2343 21.467 16.3964 21.5453 16.5859C21.6236 16.7754 21.644 16.9839 21.6039 17.1849C21.5637 17.386 21.4649 17.5707 21.3198 17.7156C21.1748 17.8606 20.99 17.9592 20.7888 17.9991C20.5877 18.0391 20.3793 18.0185 20.1898 17.94C20.0004 17.8614 19.8385 17.7285 19.7246 17.558C19.6107 17.3875 19.5499 17.187 19.5499 16.982Z" fill="white"/>
<path d="M8.09521 17.9457V16.0884C8.41326 16.0881 8.72922 16.0371 9.03128 15.9375C9.22768 15.8283 9.38934 15.6659 9.49771 15.469C9.64075 15.2145 9.73244 14.9343 9.76759 14.6445C9.81595 14.2156 9.83547 13.784 9.82603 13.3525C9.80406 12.6522 9.84782 11.9514 9.95672 11.2594C10.0233 10.903 10.1873 10.572 10.4306 10.3031C10.6545 10.0283 10.9535 9.8245 11.2912 9.71661C11.7486 9.60576 12.2192 9.55891 12.6895 9.57742H13.0752V11.1042C12.7262 11.0825 12.376 11.1151 12.0371 11.2009C11.8936 11.2571 11.7739 11.361 11.6982 11.4952C11.6159 11.8219 11.5801 12.1584 11.5919 12.495C11.5919 12.8202 11.5699 13.4368 11.526 14.3449C11.5162 14.7653 11.4527 15.1827 11.3369 15.5869C11.2525 15.8689 11.1207 16.1345 10.947 16.3721C10.7399 16.6209 10.4955 16.8359 10.2223 17.0096C10.4922 17.1702 10.7306 17.3787 10.9257 17.6248C11.1176 17.8792 11.2597 18.1676 11.3443 18.4748C11.4568 18.9152 11.5203 19.3667 11.5335 19.821C11.5675 20.6774 11.5845 21.2242 11.5845 21.4615C11.5718 21.7956 11.6113 22.1297 11.7013 22.4517C11.7829 22.5894 11.9071 22.6968 12.0552 22.7577C12.388 22.8497 12.7337 22.8856 13.0783 22.864V24.4429H12.6927C12.2268 24.4537 11.7625 24.3847 11.3199 24.2389C10.9821 24.1375 10.6766 23.9496 10.4338 23.6938C10.1879 23.4253 10.0204 23.0946 9.94928 22.7375C9.84996 22.1459 9.80833 21.5459 9.82496 20.9462C9.8502 20.3272 9.81104 19.7072 9.70809 19.0964C9.64317 18.7576 9.47373 18.4477 9.22359 18.2102C8.87723 18.0245 8.48805 17.9332 8.09521 17.9457Z" fill="white"/>
<path d="M24.7403 18.2146C24.4902 18.452 24.3208 18.7619 24.2558 19.1007C24.1529 19.7116 24.1137 20.3315 24.139 20.9505C24.1546 21.5489 24.1123 22.1474 24.0125 22.7376C23.9414 23.0946 23.7739 23.4254 23.528 23.6939C23.2865 23.9526 22.9813 24.1435 22.643 24.2474C22.2004 24.3933 21.7361 24.4623 21.2702 24.4514H20.8845V22.8757C21.2291 22.8974 21.5749 22.8615 21.9077 22.7695C22.0557 22.7086 22.1799 22.6012 22.2615 22.4635C22.3516 22.1415 22.391 21.8074 22.3784 21.4732C22.3784 21.236 22.3954 20.6891 22.4294 19.8327C22.4434 19.3787 22.5075 18.9276 22.6206 18.4876C22.7053 18.1804 22.8474 17.892 23.0393 17.6376C23.2344 17.3915 23.4728 17.183 23.7426 17.0224C23.4695 16.8488 23.2251 16.6337 23.018 16.3849C22.8443 16.1473 22.7125 15.8817 22.6281 15.5997C22.5123 15.1955 22.4488 14.7781 22.439 14.3577C22.395 13.4496 22.3731 12.833 22.3731 12.5079C22.3848 12.1713 22.3491 11.8347 22.2668 11.5081C22.1911 11.3739 22.0714 11.2699 21.9279 11.2137C21.589 11.128 21.2388 11.0953 20.8898 11.1171V9.57962H21.2755C21.7458 9.56111 22.2164 9.60795 22.6738 9.71881C23.0115 9.82669 23.3105 10.0305 23.5344 10.3053C23.7777 10.5742 23.9417 10.9052 24.0083 11.2616C24.1172 11.9536 24.1609 12.6544 24.139 13.3547C24.1295 13.7862 24.149 14.2178 24.1974 14.6467C24.2325 14.9365 24.3242 15.2167 24.4673 15.4712C24.5757 15.6681 24.7373 15.8305 24.9337 15.9397C25.2363 16.0403 25.553 16.0919 25.8719 16.0927V17.9457C25.4776 17.934 25.0872 18.0268 24.7403 18.2146Z" fill="white"/>
</svg>
