<svg width="38" height="29" viewBox="0 0 38 29" fill="none" xmlns="http://www.w3.org/2000/svg">
<path d="M26.7962 22.8732C26.9036 22.8798 27.0193 22.8931 27.1351 22.8931C28.774 22.8947 30.4145 22.8848 32.0534 22.9013C32.4124 22.9046 32.5197 22.7839 32.5013 22.445C32.4778 22.0036 32.4962 21.5606 32.4962 21.015C34.3566 22.364 36.1548 23.6668 38 25.0059C36.1682 26.335 34.37 27.6394 32.4962 29C32.4962 28.4859 32.4962 28.061 32.4962 27.6361C32.4962 27.0872 32.4962 27.0856 31.9544 27.0856C21.4753 27.0856 10.9945 27.0856 0.515402 27.0856C0.00880789 27.0856 0.00880782 27.0856 0.00880782 26.583C0.00880782 25.4935 0.0239056 24.4041 0.000421108 23.3163C-0.00796621 22.9625 0.107778 22.8831 0.451658 22.8848C6.08626 22.8947 11.7209 22.903 17.3555 22.8881C20.2441 22.8798 22.5237 21.7011 24.0318 19.2477C26.7526 14.8171 23.916 9.01439 18.7025 8.26715C14.6765 7.69018 10.9341 10.3535 10.2514 14.389C10.1793 14.8089 10.1742 15.2404 10.1323 15.7462C10.7915 15.6586 11.3887 15.5776 12.0647 15.4883C11.0063 17.5053 9.98468 19.4527 8.94801 21.4267C7.35945 19.8131 5.79438 18.2244 4.26453 16.6704C4.64867 16.6076 5.15862 16.5348 5.66354 16.4307C5.75915 16.4108 5.90006 16.2587 5.8967 16.1711C5.86819 15.1147 5.942 14.0699 6.15168 13.0333C6.15839 13.0019 6.14329 12.9656 6.13323 12.9044C5.10998 12.7325 4.16053 12.3687 3.29999 11.7835C1.19645 10.3485 0.0960361 7.6786 0.612695 5.24508C1.17465 2.59334 3.20438 0.611149 5.82793 0.1218C7.52888 -0.193962 9.10569 0.106922 10.5701 0.99304C10.8284 1.15009 10.9861 1.17324 11.1556 0.90046C11.2545 0.740099 11.4038 0.611149 11.5749 0.416071C11.788 1.26251 11.9876 2.0544 12.1855 2.84628C12.2526 3.11245 12.3046 3.38358 12.3835 3.64643C12.469 3.93079 12.3818 4.05808 12.0765 4.03825C11.1941 3.97873 10.3101 3.92583 9.42777 3.86796C9.2097 3.85309 8.9933 3.82994 8.71317 3.80349C8.93124 3.53236 9.12918 3.28934 9.34557 3.02318C8.86917 2.66608 8.34412 2.48754 7.79727 2.39992C5.15359 1.97339 2.82359 3.97542 2.87727 6.61229C2.91753 8.63581 4.64867 10.4444 6.6935 10.6164C6.95854 10.6378 7.0508 10.5056 7.15313 10.3105C8.60245 7.56949 10.7848 5.63194 13.7539 4.62348C20.6232 2.28915 27.7943 6.47176 29.1178 13.3177C29.7704 16.6886 29.0273 19.7668 26.9522 22.526C26.8952 22.6021 26.8432 22.6831 26.7929 22.7641C26.7828 22.779 26.7962 22.8087 26.8046 22.8716L26.7962 22.8732Z" fill="#0288D1"/>
</svg>
