<svg width="34" height="34" viewBox="0 0 34 34" fill="none" xmlns="http://www.w3.org/2000/svg">
<path fill-rule="evenodd" clip-rule="evenodd" d="M16.9989 0.354248C7.61173 0.354248 0 7.99509 0 17.4227C0 24.9622 4.87049 31.3593 11.6269 33.6165C12.4769 33.7733 12.7872 33.2463 12.7872 32.794C12.7872 32.3887 12.7723 31.3156 12.7638 29.8915C8.0346 30.923 7.03694 27.6034 7.03694 27.6034C6.26451 25.6321 5.14994 25.1073 5.14994 25.1073C3.60613 24.0481 5.2668 24.0694 5.2668 24.0694C6.97211 24.1899 7.86992 25.8284 7.86992 25.8284C9.38717 28.4365 11.849 27.6834 12.818 27.2461C12.9721 26.1431 13.4119 25.3911 13.8975 24.9644C10.1224 24.5334 6.15399 23.0699 6.15399 16.5299C6.15399 14.6663 6.81594 13.1431 7.90394 11.9494C7.72863 11.5174 7.14532 9.78292 8.0697 7.43296C8.0697 7.43296 9.49768 6.97425 12.7447 9.18235C14.1015 8.80366 15.555 8.61485 17.0011 8.60739C18.445 8.61485 19.8996 8.80366 21.2574 9.18235C24.5023 6.97425 25.9271 7.43296 25.9271 7.43296C26.8547 9.78292 26.2714 11.5174 26.0961 11.9494C27.1862 13.1431 27.8439 14.6663 27.8439 16.5299C27.8439 23.0859 23.8691 24.5291 20.0823 24.9515C20.6922 25.4785 21.2362 26.5196 21.2362 28.1122C21.2362 30.3939 21.2149 32.234 21.2149 32.794C21.2149 33.2506 21.521 33.7818 22.3837 33.6143C29.1338 31.3529 34 24.9601 34 17.4227C34 7.99509 26.3882 0.354248 16.9989 0.354248Z" fill="#3E75C3"/>
</svg>
