<svg width="34" height="34" viewBox="0 0 34 34" fill="none" xmlns="http://www.w3.org/2000/svg">
<g clip-path="url(#clip0_20_646)">
<path d="M33.861 19.1586C35.0507 9.84429 28.4729 1.32882 19.1756 0.139039C9.87828 -1.05075 1.32882 5.52707 0.139039 14.8244C-1.05075 24.1217 5.52707 32.6542 14.8244 33.861C24.1387 35.0507 32.6542 28.4729 33.861 19.1586Z" fill="#FF6C37"/>
<path d="M23.1358 10.915L15.9631 18.0877L13.9404 16.0651C20.9942 9.01138 21.691 9.62327 23.1358 10.915Z" fill="white"/>
<path d="M15.963 18.2576C15.912 18.2576 15.878 18.2407 15.844 18.2067L13.8044 16.184C13.7364 16.116 13.7364 16.0141 13.8044 15.9461C20.9771 8.77336 21.725 9.45324 23.2377 10.813C23.2717 10.847 23.2887 10.881 23.2887 10.932C23.2887 10.983 23.2717 11.017 23.2377 11.0509L16.065 18.2067C16.048 18.2407 15.997 18.2576 15.963 18.2576ZM14.1783 16.065L15.963 17.8497L22.8808 10.932C21.623 9.81017 20.7732 9.47023 14.1783 16.065Z" fill="#FF6C37"/>
<path d="M18.0196 20.1444L16.0649 18.1898L23.2376 11.0171C25.1583 12.9547 22.2858 16.0992 18.0196 20.1444Z" fill="white"/>
<path d="M18.0197 20.3145C17.9687 20.3145 17.9347 20.2975 17.9008 20.2635L15.9461 18.3088C15.9121 18.2748 15.9121 18.2408 15.9121 18.1898C15.9121 18.1389 15.9291 18.1049 15.9631 18.0709L23.1358 10.8982C23.2038 10.8302 23.3058 10.8302 23.3738 10.8982C23.8157 11.3061 24.0536 11.884 24.0366 12.4789C24.0027 14.3655 21.861 16.7621 18.1557 20.2635C18.1047 20.2975 18.0537 20.3145 18.0197 20.3145ZM16.303 18.1898C17.3908 19.2946 17.8498 19.7366 18.0197 19.9065C20.8752 17.187 23.6457 14.3995 23.6627 12.4789C23.6797 12.037 23.5097 11.595 23.2208 11.2551L16.303 18.1898Z" fill="#FF6C37"/>
<path d="M13.9745 16.1162L15.4192 17.5609C15.4532 17.5949 15.4532 17.6289 15.4192 17.6629C15.4022 17.6799 15.4022 17.6799 15.3852 17.6799L12.3938 18.3258C12.2408 18.3428 12.1048 18.2408 12.0708 18.0878C12.0538 18.0028 12.0878 17.9179 12.1388 17.8669L13.8725 16.1332C13.9065 16.0992 13.9575 16.0822 13.9745 16.1162Z" fill="white"/>
<path d="M12.3428 18.4958C12.0878 18.4958 11.9009 18.2918 11.9009 18.0369C11.9009 17.9179 11.9519 17.7989 12.0369 17.7139L13.7705 15.9802C13.8725 15.8953 14.0085 15.8953 14.1105 15.9802L15.5552 17.425C15.6572 17.51 15.6572 17.6629 15.5552 17.7649C15.5212 17.7989 15.4872 17.8159 15.4362 17.8329L12.4448 18.4788C12.4108 18.4788 12.3768 18.4958 12.3428 18.4958ZM13.9235 16.3032L12.2578 17.9689C12.2238 18.0029 12.2068 18.0539 12.2408 18.1049C12.2578 18.1559 12.3088 18.1728 12.3598 18.1559L15.1643 17.544L13.9235 16.3032Z" fill="#FF6C37"/>
<path d="M26.926 6.93777C25.8382 5.88396 24.0875 5.91795 23.0337 7.02275C21.9799 8.12755 22.0139 9.86124 23.1187 10.915C24.0195 11.7819 25.3793 11.9349 26.4501 11.289L24.5124 9.35133L26.926 6.93777Z" fill="white"/>
<path d="M25.0226 11.8499C23.4079 11.8499 22.0991 10.5411 22.0991 8.9264C22.0991 7.31169 23.4079 6.00293 25.0226 6.00293C25.7705 6.00293 26.5013 6.29188 27.0452 6.81878C27.0792 6.85278 27.0962 6.88677 27.0962 6.93776C27.0962 6.98875 27.0792 7.02275 27.0452 7.05674L24.7506 9.35133L26.5523 11.153C26.6203 11.221 26.6203 11.323 26.5523 11.391C26.5353 11.408 26.5353 11.408 26.5183 11.425C26.0764 11.6969 25.5495 11.8499 25.0226 11.8499ZM25.0226 6.35987C23.5949 6.35987 22.4391 7.51566 22.4561 8.9434C22.4561 10.3711 23.6118 11.5269 25.0396 11.5099C25.4305 11.5099 25.8215 11.425 26.1784 11.238L24.3937 9.4703C24.3597 9.43631 24.3427 9.40232 24.3427 9.35133C24.3427 9.30034 24.3597 9.26634 24.3937 9.23235L26.6713 6.95476C26.2124 6.56383 25.6345 6.35987 25.0226 6.35987Z" fill="#FF6C37"/>
<path d="M26.9773 6.98883L26.9433 6.95483L24.5127 9.3514L26.4333 11.2721C26.6203 11.1531 26.8073 11.0171 26.9603 10.8641C28.0481 9.79332 28.0481 8.05963 26.9773 6.98883Z" fill="white"/>
<path d="M26.4504 11.459C26.3994 11.459 26.3654 11.442 26.3314 11.408L24.3938 9.47034C24.3598 9.43634 24.3428 9.40235 24.3428 9.35136C24.3428 9.30037 24.3598 9.26637 24.3938 9.23238L26.8073 6.81881C26.8753 6.75083 26.9773 6.75083 27.0453 6.81881L27.0963 6.85281C28.2351 7.9916 28.2351 9.82727 27.1133 10.9831C26.9433 11.153 26.7563 11.306 26.5524 11.425C26.5014 11.442 26.4674 11.459 26.4504 11.459ZM24.7507 9.35136L26.4674 11.068C26.6034 10.9831 26.7393 10.8641 26.8413 10.7621C27.8101 9.79328 27.8611 8.21256 26.9263 7.19275L24.7507 9.35136Z" fill="#FF6C37"/>
<path d="M23.4247 11.221C23.0167 10.8131 22.3539 10.8131 21.9459 11.221L15.5381 17.6288L16.6089 18.6996L23.3907 12.7507C23.8326 12.3768 23.8666 11.7139 23.4927 11.272C23.4587 11.255 23.4417 11.238 23.4247 11.221Z" fill="white"/>
<path d="M16.5919 18.8697C16.5409 18.8697 16.5069 18.8527 16.4729 18.8187L15.4021 17.7479C15.3341 17.6799 15.3341 17.5779 15.4021 17.5099L21.8099 11.1021C22.2858 10.6261 23.0507 10.6261 23.5266 11.1021C24.0025 11.578 24.0025 12.3428 23.5266 12.8187C23.5096 12.8357 23.4926 12.8527 23.4756 12.8697L16.6938 18.8187C16.6768 18.8527 16.6428 18.8697 16.5919 18.8697ZM15.776 17.6289L16.6088 18.4617L23.2716 12.6148C23.6456 12.3088 23.6796 11.7479 23.3736 11.374C23.0677 11.0001 22.5068 10.9661 22.1329 11.272C22.1159 11.289 22.0989 11.306 22.0649 11.323L15.776 17.6289Z" fill="#FF6C37"/>
<path d="M10.6258 24.9205C10.5578 24.9545 10.5238 25.0225 10.5408 25.0905L10.8298 26.3142C10.8978 26.4842 10.7958 26.6882 10.6088 26.7392C10.4729 26.7902 10.3199 26.7392 10.2349 26.6372L8.36523 24.7845L14.4671 18.6826L16.5748 18.7166L18.0025 20.1444C17.6626 20.4333 15.6059 22.4219 10.6258 24.9205Z" fill="white"/>
<path d="M10.4901 26.9092C10.3541 26.9092 10.2181 26.8582 10.1331 26.7562L8.28048 24.9035C8.24649 24.8695 8.22949 24.8356 8.22949 24.7846C8.22949 24.7336 8.24649 24.6996 8.28048 24.6656L14.3824 18.5637C14.4164 18.5297 14.4674 18.5127 14.5014 18.5127L16.609 18.5467C16.66 18.5467 16.694 18.5637 16.728 18.5977L18.1557 20.0254C18.1897 20.0594 18.2067 20.1104 18.2067 20.1614C18.2067 20.2124 18.1897 20.2464 18.1387 20.2804L18.0197 20.3824C16.2181 21.9631 13.7705 23.5438 10.728 25.0565L11.017 26.2633C11.068 26.4843 10.966 26.7222 10.762 26.8412C10.6601 26.8922 10.5751 26.9092 10.4901 26.9092ZM8.62042 24.7846L10.3711 26.5183C10.4221 26.6032 10.5241 26.6372 10.6091 26.5862C10.694 26.5352 10.728 26.4333 10.6771 26.3483L10.3881 25.1245C10.3541 24.9715 10.4221 24.8356 10.5581 24.7676C13.5665 23.2548 15.9971 21.6911 17.7818 20.1444L16.524 18.8866L14.5693 18.8526L8.62042 24.7846Z" fill="#FF6C37"/>
<path d="M6.92091 26.2464L8.38265 24.7847L10.5583 26.9603L7.09088 26.7223C6.93791 26.7053 6.83592 26.5693 6.85292 26.4164C6.85292 26.3484 6.86992 26.2804 6.92091 26.2464Z" fill="white"/>
<path d="M10.558 27.1132L7.07365 26.8752C6.81869 26.8582 6.64872 26.6373 6.66572 26.3823C6.68272 26.2804 6.71671 26.1784 6.80169 26.1104L8.26343 24.6486C8.33142 24.5807 8.4334 24.5807 8.50139 24.6486L10.677 26.8243C10.728 26.8752 10.745 26.9432 10.711 27.0112C10.677 27.0792 10.626 27.1132 10.558 27.1132ZM8.38241 25.0226L7.03965 26.3653C6.98866 26.3993 6.98866 26.4843 7.03965 26.5183C7.05665 26.5353 7.07365 26.5523 7.10764 26.5523L10.1161 26.7563L8.38241 25.0226Z" fill="#FF6C37"/>
<path d="M13.8726 19.4645C13.7706 19.4645 13.7026 19.3795 13.7026 19.2945C13.7026 19.2435 13.7196 19.2095 13.7536 19.1755L15.4023 17.5268C15.4703 17.4588 15.5723 17.4588 15.6403 17.5268L16.7111 18.5976C16.7621 18.6486 16.7791 18.6996 16.7621 18.7676C16.7451 18.8186 16.6941 18.8696 16.6261 18.8866L13.9066 19.4645C13.8896 19.4645 13.8726 19.4645 13.8726 19.4645ZM15.5213 17.8838L14.3995 19.0056L16.2352 18.6146L15.5213 17.8838Z" fill="#FF6C37"/>
<path d="M16.5748 18.7167L14.7051 19.1246C14.5692 19.1586 14.4332 19.0736 14.3992 18.9376C14.3822 18.8526 14.3992 18.7676 14.4672 18.6997L15.504 17.6628L16.5748 18.7167Z" fill="white"/>
<path d="M14.6715 19.2945C14.4335 19.2945 14.2466 19.1075 14.2466 18.8696C14.2466 18.7506 14.2976 18.6486 14.3656 18.5636L15.4024 17.5268C15.4704 17.4588 15.5723 17.4588 15.6403 17.5268L16.7111 18.5976C16.7621 18.6486 16.7791 18.6996 16.7621 18.7676C16.7451 18.8186 16.6941 18.8696 16.6262 18.8866L14.7565 19.2945C14.7225 19.2945 14.6885 19.2945 14.6715 19.2945ZM15.5214 17.8838L14.6035 18.8016C14.5695 18.8356 14.5695 18.8696 14.5865 18.9036C14.6035 18.9376 14.6375 18.9546 14.6885 18.9546L16.2522 18.6146L15.5214 17.8838Z" fill="#FF6C37"/>
<path d="M26.9941 8.62043C26.9601 8.51845 26.8411 8.46746 26.7391 8.50145C26.6371 8.53545 26.5862 8.65443 26.6202 8.75641C26.6202 8.77341 26.6371 8.7904 26.6371 8.8074C26.7391 9.01136 26.7051 9.26632 26.5692 9.45328C26.5012 9.53827 26.5182 9.65725 26.5862 9.72523C26.6711 9.79322 26.7901 9.77623 26.8581 9.69124C27.1131 9.3683 27.1641 8.96037 26.9941 8.62043Z" fill="#FF6C37"/>
</g>
<defs>
<clipPath id="clip0_20_646">
<rect width="34" height="34" fill="white"/>
</clipPath>
</defs>
</svg>
