<svg width="36" height="36" viewBox="0 0 36 36" fill="none" xmlns="http://www.w3.org/2000/svg">
<path d="M35.3211 16.3962L19.6031 0.679146C18.6985 -0.226057 17.2304 -0.226057 16.3246 0.679146L13.0607 3.94305L17.2011 8.08347C18.1633 7.75835 19.2666 7.97646 20.0336 8.74343C20.8042 9.51532 21.0208 10.6281 20.6878 11.5933L24.678 15.5837C25.6434 15.2511 26.7573 15.4663 27.5283 16.2386C28.6059 17.3158 28.6059 19.0616 27.5283 20.1395C26.4504 21.2176 24.7046 21.2176 23.6261 20.1395C22.8156 19.3281 22.6153 18.1377 23.0257 17.1392L19.3044 13.4179L19.304 23.2106C19.5738 23.344 19.8202 23.5202 20.0336 23.7324C21.1112 24.8096 21.1112 26.5556 20.0336 27.6343C18.9557 28.7118 17.209 28.7118 16.1326 27.6343C15.055 26.5556 15.055 24.8097 16.1326 23.7325C16.3909 23.4741 16.6978 23.2695 17.0356 23.1305V13.2465C16.6973 13.1084 16.3902 12.9037 16.1326 12.6445C15.3162 11.8292 15.1199 10.6312 15.5382 9.62866L11.4567 5.54674L0.679219 16.3235C-0.226406 17.2296 -0.226406 18.6979 0.679219 19.6032L16.3974 35.3206C17.3024 36.2259 18.7702 36.2259 19.6763 35.3206L35.3209 19.6762C36.2263 18.7706 36.2264 17.3014 35.3211 16.3962Z" fill="#DE4C36"/>
</svg>
