<svg width="34" height="34" viewBox="0 0 34 34" fill="none" xmlns="http://www.w3.org/2000/svg">
<g clip-path="url(#clip0_20_643)">
<path d="M17 34C26.3888 34 34 26.3888 34 17C34 7.61116 26.3888 0 17 0C7.61116 0 0 7.61116 0 17C0 26.3888 7.61116 34 17 34Z" fill="#13AA52"/>
<path d="M21.5442 14.9228C20.4704 10.1837 17.9327 8.62551 17.6595 8.03018C17.3606 7.61016 17.0578 6.86309 17.0578 6.86309C17.0528 6.85047 17.0449 6.82822 17.0356 6.80664C17.0047 7.22666 16.9888 7.38869 16.5916 7.81236C15.9767 8.29314 12.8218 10.9404 12.5651 16.3246C12.3257 21.3463 16.1925 24.3386 16.7155 24.7201L16.7749 24.7622V24.7586C16.7782 24.7838 16.9409 25.9539 17.0552 27.1937H17.4649C17.561 26.3173 17.7051 25.4469 17.8965 24.5862L17.9297 24.5647C18.1637 24.3969 18.3867 24.2145 18.5974 24.0185L18.6214 23.9969C19.733 22.9699 21.7315 20.5946 21.7119 16.8074C21.7078 16.1757 21.6517 15.5454 21.5442 14.9228ZM17.0117 21.8848C17.0117 21.8848 17.0117 14.8418 17.2441 14.8431C17.4254 14.8431 17.6601 23.9278 17.6601 23.9278C17.3374 23.889 17.0117 22.4327 17.0117 21.8848Z" fill="white"/>
</g>
<defs>
<clipPath id="clip0_20_643">
<rect width="34" height="34" fill="white"/>
</clipPath>
</defs>
</svg>
