<svg width="33" height="33" viewBox="0 0 33 33" fill="none" xmlns="http://www.w3.org/2000/svg">
<path fill-rule="evenodd" clip-rule="evenodd" d="M13.1387 0C10.5184 0 8.39418 1.99553 8.39418 4.45715V7.54287H16.6059V8.40002H4.74453C2.1242 8.40002 0 10.3956 0 12.8572V19.5429C0 22.0045 2.1242 24 4.74453 24H7.48176V20.2286C7.48176 17.767 9.60597 15.7714 12.2263 15.7714H20.9854C23.2027 15.7714 25 14.0829 25 12.0001V4.45715C25 1.99553 22.8759 0 20.2555 0H13.1387ZM12.0439 5.48572C12.9509 5.48572 13.6862 4.79496 13.6862 3.94287C13.6862 3.09077 12.9509 2.4 12.0439 2.4C11.1367 2.4 10.4015 3.09077 10.4015 3.94287C10.4015 4.79496 11.1367 5.48572 12.0439 5.48572Z" fill="url(#paint0_linear_18_490)"/>
<path fill-rule="evenodd" clip-rule="evenodd" d="M19.8613 33C22.4817 33 24.6059 31.0045 24.6059 28.5429V25.4572H16.3941V24.6001H28.2555C30.8759 24.6001 33 22.6045 33 20.1429V13.4571C33 10.9955 30.8759 9 28.2555 9H25.5183V12.7714C25.5183 15.2331 23.394 17.2286 20.7738 17.2286H12.0146C9.79734 17.2286 8 18.9171 8 21V28.5429C8 31.0045 10.1242 33 12.7445 33H19.8613ZM20.9563 27.5143C20.0491 27.5143 19.3139 28.205 19.3139 29.0571C19.3139 29.9093 20.0491 30.6 20.9563 30.6C21.8633 30.6 22.5985 29.9093 22.5985 29.0571C22.5985 28.205 21.8633 27.5143 20.9563 27.5143Z" fill="url(#paint1_linear_18_490)"/>
<defs>
<linearGradient id="paint0_linear_18_490" x1="12.5001" y1="0" x2="12.5001" y2="24" gradientUnits="userSpaceOnUse">
<stop stop-color="#327EBD"/>
<stop offset="1" stop-color="#1565A7"/>
</linearGradient>
<linearGradient id="paint1_linear_18_490" x1="20.5001" y1="9" x2="20.5001" y2="33" gradientUnits="userSpaceOnUse">
<stop stop-color="#FFDA4B"/>
<stop offset="1" stop-color="#F9C600"/>
</linearGradient>
</defs>
</svg>
