<svg width="25" height="34" viewBox="0 0 25 34" fill="none" xmlns="http://www.w3.org/2000/svg">
<path d="M24.0878 6.68188L21.8933 31.2654L12.0291 34.0001L2.19213 31.2692L0 6.68188H24.0878Z" fill="#E65100"/>
<path d="M12.0439 31.9097L20.0147 29.6999L21.89 8.69214H12.0439V31.9097Z" fill="#FF6D00"/>
<path d="M7.77803 14.7233H12.044V11.7078H4.48242L4.55461 12.5168L5.29576 20.8268H12.044V17.8113H8.05361L7.77803 14.7233Z" fill="#EBEBEB"/>
<path d="M8.45755 22.3347H5.43042L5.8529 27.0695L12.03 28.7844L12.0439 28.7805V25.6431L12.0307 25.6466L8.67224 24.7397L8.45755 22.3347Z" fill="#EBEBEB"/>
<path d="M2.24121 0H3.77367V1.51406H5.1755V0H6.70802V4.58495H5.17557V3.04964H3.77373V4.58495H2.24128L2.24121 0Z" fill="white"/>
<path d="M8.72313 1.52044H7.37402V0H11.6054V1.52044H10.2557V4.58495H8.7232L8.72313 1.52044Z" fill="white"/>
<path d="M12.2771 0H13.875L14.858 1.61101L15.8399 0H17.4385V4.58495H15.9123V2.3124L14.858 3.9426H14.8316L13.7766 2.3124V4.58495H12.2771V0Z" fill="white"/>
<path d="M18.2012 0H19.7341V3.06943H21.8892V4.58495H18.2012V0Z" fill="white"/>
<path d="M12.0334 20.8268H15.7467L15.3967 24.7377L12.0334 25.6455V28.7828L18.2155 27.0694L18.2608 26.56L18.9694 18.621L19.043 17.8113H12.0334V20.8268Z" fill="white"/>
<path d="M12.0334 14.716V14.7233H19.3174L19.3779 14.0455L19.5153 12.5168L19.5874 11.7078H12.0334V14.716Z" fill="white"/>
</svg>
