<svg width="34" height="39" viewBox="0 0 34 39" fill="none" xmlns="http://www.w3.org/2000/svg">
<g clip-path="url(#clip0_20_641)">
<path d="M17 38.9276C16.472 38.9276 15.9793 38.7846 15.5217 38.5342L10.8406 35.709C10.1366 35.3156 10.4886 35.1726 10.6998 35.101C11.6501 34.7792 11.8261 34.7076 12.8116 34.1354C12.9172 34.0639 13.058 34.0997 13.1636 34.1712L16.7536 36.3527C16.8944 36.4243 17.0704 36.4243 17.176 36.3527L31.2195 28.0916C31.3602 28.02 31.4306 27.877 31.4306 27.6982V11.2116C31.4306 11.0328 31.3602 10.8897 31.2195 10.8182L17.176 2.59279C17.0352 2.52127 16.8592 2.52127 16.7536 2.59279L2.71014 10.8182C2.56936 10.8897 2.49896 11.0685 2.49896 11.2116V27.6982C2.49896 27.8412 2.56936 28.02 2.71014 28.0916L6.54658 30.3446C8.62319 31.4175 9.92547 30.1658 9.92547 28.9141V12.6421C9.92547 12.4275 10.1014 12.2129 10.3478 12.2129H12.1429C12.354 12.2129 12.5652 12.3918 12.5652 12.6421V28.9141C12.5652 31.7393 11.0518 33.3844 8.41201 33.3844C7.60248 33.3844 6.96894 33.3844 5.17391 32.4904L1.47826 30.3446C0.563147 29.8082 0 28.8068 0 27.7339V11.2474C0 10.1745 0.563147 9.17312 1.47826 8.63668L15.5217 0.375508C16.4017 -0.125169 17.5983 -0.125169 18.4783 0.375508L32.5217 8.63668C33.4369 9.17312 34 10.1745 34 11.2474V27.7339C34 28.8068 33.4369 29.8082 32.5217 30.3446L18.4783 38.6058C18.0207 38.8203 17.4928 38.9276 17 38.9276ZM21.3292 27.5909C15.1698 27.5909 13.9027 24.7299 13.9027 22.298C13.9027 22.0834 14.0787 21.8689 14.3251 21.8689H16.1553C16.3665 21.8689 16.5424 22.0119 16.5424 22.2265C16.824 24.1219 17.6335 25.0517 21.3644 25.0517C24.3209 25.0517 25.588 24.3722 25.588 22.7629C25.588 21.8331 25.236 21.1536 20.6253 20.6887C16.7888 20.2953 14.3954 19.437 14.3954 16.3256C14.3954 13.4289 16.7888 11.7123 20.8012 11.7123C25.3064 11.7123 27.5238 13.2858 27.8054 16.719C27.8054 16.8263 27.7702 16.9336 27.6998 17.0409C27.6294 17.1124 27.5238 17.1839 27.4182 17.1839H25.588C25.412 17.1839 25.236 17.0409 25.2008 16.8621C24.7785 14.8951 23.6874 14.2514 20.8012 14.2514C17.5631 14.2514 17.176 15.3958 17.176 16.2541C17.176 17.2912 17.6335 17.6131 21.9979 18.1853C26.3271 18.7575 28.3685 19.58 28.3685 22.6556C28.3333 25.8027 25.7992 27.5909 21.3292 27.5909Z" fill="#539E43"/>
</g>
<defs>
<clipPath id="clip0_20_641">
<rect width="34" height="39" fill="white"/>
</clipPath>
</defs>
</svg>
