<svg width="24" height="18" viewBox="0 0 24 18" fill="none" xmlns="http://www.w3.org/2000/svg">
<path d="M23.5494 9.89855V4.83813L22.8879 5.10004V9.89855H23.5494Z" fill="#FF90AB"/>
<path d="M19.5715 7.84863L12.1604 10.7839C12.0924 10.8114 12.0206 10.8249 11.9492 10.8249C11.8777 10.8249 11.8054 10.8114 11.7373 10.7839L4.32661 7.84863V15.1083H4.33446L4.31763 15.208C4.31763 16.0717 7.73485 17.9999 11.9448 17.9999C16.1545 17.9999 19.5627 16.0717 19.5627 15.208L19.5453 15.1083H19.5715V7.84863Z" fill="#FF90AB"/>
<path d="M4.3265 6.41414L11.9492 9.43324L19.5714 6.41414L22.8879 5.10009L23.5494 4.83818L23.8977 4.70023L11.9492 0L0 4.70023L4.3265 6.41414Z" fill="#FF90AB"/>
<path d="M22.4373 11.0841V14.0384C22.4373 14.5425 22.7867 14.9511 23.2187 14.9511C23.6504 14.9511 24 14.5425 24 14.0384V11.0841C24 10.8345 23.9139 10.6085 23.7752 10.4438H22.6626C22.5238 10.6085 22.4373 10.8345 22.4373 11.0841Z" fill="#FF90AB"/>
<path d="M22.5627 9.89868V10.4441H22.6625H23.7751H23.8742V9.89868H23.5494H22.8879H22.5627Z" fill="#FF90AB"/>
</svg>
