<svg width="34" height="34" viewBox="0 0 34 34" fill="none" xmlns="http://www.w3.org/2000/svg">
<path d="M0 34V0H34V34H0Z" fill="#FFD600"/>
<path d="M22.1603 25.2628C22.8014 26.3166 23.4981 27.3262 24.974 27.3262C26.2136 27.3262 26.8639 26.7028 26.8639 25.8403C26.8639 24.8081 26.1913 24.4416 24.8276 23.8406L24.0799 23.5181C21.9222 22.5919 20.4871 21.4313 20.4871 18.9797C20.4871 16.7203 22.1965 15.0009 24.8674 15.0009C26.7694 15.0009 28.136 15.6675 29.1217 17.4131L26.7926 18.9197C26.2803 17.9934 25.7263 17.6288 24.8674 17.6288C23.991 17.6288 23.4361 18.1884 23.4361 18.9197C23.4361 19.8234 23.9919 20.1891 25.2751 20.7487L26.0227 21.0712C28.5658 22.1672 30 23.2866 30 25.8028C30 28.5141 27.884 30 25.0435 30C22.265 30 20.6873 28.5891 19.809 26.8425L22.1603 25.2628ZM11.4264 25.3397C11.8952 26.1891 12.6076 26.8425 13.6323 26.8425C14.6125 26.8425 15.1767 26.4506 15.1767 24.9272V15H18.2646V25.4072C18.2646 28.5638 16.4552 30 13.8129 30C11.4255 30 9.70225 28.3631 9 26.8425L11.4264 25.3397Z" fill="#000001"/>
</svg>
