<svg width="35" height="29" viewBox="0 0 35 29" fill="none" xmlns="http://www.w3.org/2000/svg">
<path d="M30.7059 29H3.41176C1.53018 29 0 27.4698 0 25.5882V3.41176C0 1.53018 1.53018 0 3.41176 0H30.7059C32.5875 0 34.1176 1.53018 34.1176 3.41176V25.5882C34.1176 27.4698 32.5875 29 30.7059 29Z" fill="#FFC107"/>
<path d="M25.5883 5.10059H8.54653C6.67006 5.10059 5.13477 6.62735 5.13477 8.51235V19.6176C5.13477 21.2041 6.218 22.5347 7.67653 22.91V21.0847C7.17329 20.7862 6.84065 20.2403 6.84065 19.6176V8.51235C6.84065 7.57412 7.60829 6.80647 8.54653 6.80647H25.5883C26.5265 6.80647 27.2942 7.57412 27.2942 8.51235V19.6176C27.2942 20.2488 26.953 20.7947 26.4412 21.0932V22.9185C27.9168 22.5432 29.0001 21.2041 29.0001 19.6176V8.51235C29.0001 6.62735 27.4733 5.10059 25.5883 5.10059Z" fill="#212121"/>
<path d="M10.6617 17.9119C11.368 17.9119 11.9411 18.485 11.9411 19.1913V23.456C11.9411 24.1622 11.368 24.7354 10.6617 24.7354C9.9555 24.7354 9.38232 24.1622 9.38232 23.456V19.1913C9.38232 18.485 9.9555 17.9119 10.6617 17.9119Z" fill="#212121"/>
<path d="M14.9264 12.7942C15.6326 12.7942 16.2058 13.3674 16.2058 14.0736V23.456C16.2058 24.1622 15.6326 24.7354 14.9264 24.7354C14.2201 24.7354 13.647 24.1622 13.647 23.456V14.0736C13.647 13.3674 14.2201 12.7942 14.9264 12.7942Z" fill="#212121"/>
<path d="M19.191 15.353C19.8973 15.353 20.4704 15.9262 20.4704 16.6324V23.456C20.4704 24.1622 19.8973 24.7354 19.191 24.7354C18.4848 24.7354 17.9116 24.1622 17.9116 23.456V16.6324C17.9116 15.9262 18.4848 15.353 19.191 15.353Z" fill="#212121"/>
<path d="M23.4557 9.38232C24.1619 9.38232 24.7351 9.9555 24.7351 10.6617V23.4559C24.7351 24.1621 24.1619 24.7353 23.4557 24.7353C22.7494 24.7353 22.1763 24.1621 22.1763 23.4559V10.6617C22.1763 9.9555 22.7494 9.38232 23.4557 9.38232Z" fill="#212121"/>
</svg>
