<svg width="34" height="34" viewBox="0 0 34 34" fill="none" xmlns="http://www.w3.org/2000/svg">
<path d="M34 34H0V0H34V34ZM1.66667 1.66667V32.3333H32.3333V1.66667H1.66667Z" fill="#0288D1"/>
<path d="M25.6413 16C25.4366 15.9994 25.2485 16.0045 25.108 16.0177C24.0095 16.112 22.9835 16.5855 22.2812 17.3222C21.9294 17.6914 21.6107 18.2206 21.455 18.6944C21.2834 19.2165 21.2846 19.2065 21.2855 20.0245C21.2864 21.0695 21.3402 21.3284 21.7004 22.0234C22.0627 22.7222 22.6146 23.2931 23.4108 23.7925C23.7597 24.0113 24.6533 24.4511 25.3831 24.7631C26.9716 25.4423 27.4741 25.7556 27.7073 26.2125L27.8036 26.401V26.7961C27.8036 27.1773 27.802 27.1969 27.7235 27.354C27.5443 27.7176 27.1214 28.0154 26.5798 28.1593C26.3749 28.2135 26.2811 28.2213 25.8234 28.2214C25.3754 28.2214 25.2666 28.2123 25.0613 28.1619C24.7028 28.0723 24.4007 27.9485 24.1646 27.7942C23.8755 27.6052 23.307 27.0387 23.0758 26.7092C22.9737 26.5637 22.8712 26.4445 22.8482 26.4445C22.8101 26.4445 20.8501 27.5505 20.508 27.7649C20.3926 27.8372 20.3634 27.8702 20.3634 27.9281C20.3634 28.0483 20.8214 28.7315 21.1801 29.1465C21.911 29.992 23.3767 30.7375 24.675 30.9242C25.1882 30.9979 26.0407 31.0217 26.6363 30.9784C27.0265 30.9502 27.421 30.8771 27.8448 30.7544C29.3783 30.3105 30.4246 29.3674 30.8123 28.0793C30.9704 27.5539 31.0344 26.9076 30.9821 26.3624C30.875 25.2438 30.5266 24.453 29.8389 23.768C29.2003 23.1319 28.3236 22.6194 26.5933 21.8706C25.0931 21.2214 24.7015 20.9692 24.4853 20.5132C24.2986 20.1195 24.3342 19.5777 24.569 19.241C24.8438 18.8468 25.4046 18.6521 26.0301 18.7339C26.6118 18.8097 26.9879 19.0372 27.3564 19.5356C27.5478 19.7944 27.6807 19.9292 27.7443 19.9292C27.8071 19.9292 28.0777 19.7645 28.9176 19.2141C29.7726 18.654 30.0415 18.4639 30.0599 18.4066C30.0885 18.3178 29.9545 18.11 29.5625 17.6354C28.7754 16.6826 27.8502 16.1769 26.6622 16.05C26.3705 16.0187 25.9827 16.0014 25.6415 16.0004L25.6413 16ZM16.1902 16.1617C15.485 16.1613 14.6793 16.1617 13.7842 16.1626C9.14207 16.1671 8.06464 16.1746 8.03559 16.2042C8.00733 16.2321 8 16.513 8 17.5614V18.8835L10.1109 18.8911L12.222 18.8986L12.2224 24.7959C12.2226 28.0395 12.23 30.7208 12.2403 30.7543L12.2562 30.8156H13.7903C15.1639 30.8156 15.3261 30.8126 15.3411 30.7728C15.3503 30.7491 15.357 28.0678 15.357 24.8144V18.8988L17.468 18.8914L19.579 18.8838V17.5458C19.579 16.3862 19.5744 16.2045 19.5377 16.182C19.5184 16.1699 18.3055 16.1627 16.1897 16.1616L16.1902 16.1617Z" fill="#0288D1"/>
</svg>
