<svg width="361" height="504" viewBox="0 0 361 504" fill="none" xmlns="http://www.w3.org/2000/svg">
<path d="M42.4968 490.011L56.8713 490.01L63.7078 434.694L42.4917 434.696L42.4968 490.011Z" fill="#FFB8B8"/>
<path d="M42.4968 490.011L56.8713 490.01L63.7078 434.694L42.4917 434.696L42.4968 490.011Z" fill="#FFB8B8"/>
<path d="M67.1404 485.912H39.4176V503.326H84.5955C84.5955 501.039 84.144 498.775 83.2668 496.662C82.3896 494.549 81.1039 492.629 79.483 491.012C77.8622 489.395 75.9379 488.113 73.8202 487.237C71.7024 486.362 69.4326 485.912 67.1404 485.912V485.912Z" fill="#2F2E41"/>
<path d="M67.1404 485.912H39.4176V503.326H84.5955C84.5955 501.039 84.144 498.775 83.2668 496.662C82.3896 494.549 81.1039 492.629 79.483 491.012C77.8622 489.395 75.9379 488.113 73.8202 487.237C71.7024 486.362 69.4326 485.912 67.1404 485.912V485.912Z" fill="#2F2E41"/>
<path d="M189.355 490.011L203.729 490.01L210.566 434.694L189.35 434.696L189.355 490.011Z" fill="#FFB8B8"/>
<path d="M189.355 490.011L203.729 490.01L210.566 434.694L189.35 434.696L189.355 490.011Z" fill="#FFB8B8"/>
<path d="M213.997 485.912H186.274V503.326H231.452C231.452 501.039 231.001 498.775 230.124 496.662C229.246 494.549 227.961 492.629 226.34 491.012C224.719 489.395 222.795 488.113 220.677 487.237C218.559 486.362 216.29 485.912 213.997 485.912V485.912Z" fill="#2F2E41"/>
<path d="M213.997 485.912H186.274V503.326H231.452C231.452 501.039 231.001 498.775 230.124 496.662C229.246 494.549 227.961 492.629 226.34 491.012C224.719 489.395 222.795 488.113 220.677 487.237C218.559 486.362 216.29 485.912 213.997 485.912V485.912Z" fill="#2F2E41"/>
<path d="M141.341 79.6984V73.4262C141.341 62.6967 137.069 52.4067 129.464 44.8198C121.859 37.2329 111.545 32.9706 100.79 32.9706H100.79C90.0352 32.9706 79.7209 37.2329 72.1161 44.8198C64.5113 52.4067 60.2389 62.6967 60.2389 73.4262V79.6984C60.2389 87.4336 63.319 94.8521 68.8015 100.322C74.284 105.791 81.7199 108.864 89.4734 108.864H112.107C115.946 108.864 119.747 108.11 123.294 106.644C126.841 105.178 130.064 103.03 132.778 100.322C135.493 97.6134 137.647 94.3982 139.116 90.8597C140.585 87.3211 141.341 83.5285 141.341 79.6984V79.6984Z" fill="#2F2E41"/>
<path d="M141.341 79.6981V73.4258C141.341 62.6963 137.069 52.4063 129.464 44.8194C121.859 37.2325 111.545 32.9702 100.79 32.9702H100.79C90.0352 32.9702 79.7209 37.2325 72.1161 44.8194C64.5113 52.4063 60.2389 62.6963 60.2389 73.4258V79.6981C60.2389 87.4333 63.319 94.8517 68.8015 100.321C74.284 105.791 81.7199 108.864 89.4734 108.864H112.107C115.946 108.864 119.747 108.109 123.294 106.644C126.841 105.178 130.064 103.03 132.778 100.321C135.493 97.613 137.647 94.3978 139.116 90.8593C140.585 87.3207 141.341 83.5282 141.341 79.6981V79.6981Z" fill="#2F2E41"/>
<path d="M100.79 111.022C83.7339 111.022 69.9072 97.228 69.9072 80.212C69.9072 63.196 83.7339 49.4017 100.79 49.4017C117.846 49.4017 131.673 63.196 131.673 80.212C131.673 97.228 117.846 111.022 100.79 111.022Z" fill="#FFB8B8"/>
<path d="M100.79 111.022C83.7339 111.022 69.9072 97.2278 69.9072 80.2118C69.9072 63.1957 83.7339 49.4015 100.79 49.4015C117.846 49.4015 131.673 63.1957 131.673 80.2118C131.673 97.2278 117.846 111.022 100.79 111.022Z" fill="#FFB8B8"/>
<path d="M268.774 186.103C267.52 184.922 266.023 184.03 264.386 183.489C262.75 182.948 261.015 182.772 259.303 182.973C257.591 183.173 255.944 183.746 254.478 184.65C253.012 185.555 251.762 186.769 250.818 188.207L224.344 183.211L217.376 198.521L254.862 205.052C257.389 206.476 260.352 206.925 263.189 206.315C266.026 205.705 268.54 204.078 270.254 201.742C271.969 199.406 272.766 196.524 272.493 193.641C272.22 190.759 270.896 188.077 268.774 186.103V186.103Z" fill="#FFB8B8"/>
<path d="M268.774 186.103C267.52 184.922 266.023 184.03 264.386 183.489C262.75 182.948 261.015 182.772 259.303 182.973C257.591 183.173 255.944 183.746 254.478 184.65C253.012 185.555 251.762 186.769 250.818 188.207L224.344 183.211L217.376 198.521L254.862 205.052C257.389 206.476 260.352 206.925 263.189 206.315C266.026 205.705 268.54 204.078 270.254 201.742C271.969 199.406 272.766 196.524 272.493 193.641C272.22 190.759 270.896 188.077 268.774 186.103V186.103Z" fill="#FFB8B8"/>
<path d="M124.867 130.425L124.521 130.949L167.934 159.48L241.187 182.817C242.158 183.128 242.991 183.766 243.544 184.621C244.097 185.476 244.336 186.495 244.22 187.506L242.622 201.238C242.551 201.846 242.354 202.432 242.043 202.959C241.731 203.487 241.313 203.943 240.815 204.3C240.316 204.656 239.749 204.905 239.148 205.03C238.548 205.154 237.928 205.153 237.328 205.025L168.386 190.282C165.049 189.572 161.894 188.186 159.117 186.21L110.345 151.592C108.577 150.33 107.166 148.633 106.25 146.666C105.334 144.699 104.943 142.53 105.116 140.368C105.295 138.203 106.036 136.122 107.265 134.329C108.495 132.536 110.171 131.094 112.129 130.143C114.087 129.193 116.259 128.768 118.432 128.909C120.605 129.05 122.703 129.753 124.521 130.949L124.867 130.425Z" fill="#CCCCCC"/>
<path d="M124.867 130.425L124.521 130.949L167.934 159.48L241.187 182.817C242.158 183.128 242.991 183.766 243.544 184.621C244.097 185.476 244.336 186.495 244.22 187.506L242.622 201.238C242.551 201.846 242.354 202.432 242.043 202.959C241.731 203.487 241.313 203.943 240.815 204.3C240.316 204.656 239.749 204.905 239.148 205.03C238.548 205.154 237.928 205.153 237.328 205.025L168.386 190.282C165.049 189.572 161.894 188.186 159.117 186.21L110.345 151.592C108.577 150.33 107.166 148.633 106.25 146.666C105.334 144.699 104.943 142.53 105.116 140.368C105.295 138.203 106.036 136.122 107.265 134.329C108.495 132.536 110.171 131.094 112.129 130.143C114.087 129.193 116.259 128.768 118.432 128.909C120.605 129.05 122.703 129.753 124.521 130.949L124.867 130.425Z" fill="#CCCCCC"/>
<path d="M56.6147 474.314C57.718 474.314 58.7976 473.993 59.7215 473.392C60.6454 472.79 61.3736 471.933 61.8174 470.925L127.717 308.474C127.871 308.122 128.13 307.825 128.458 307.624C128.786 307.422 129.168 307.326 129.552 307.347C129.937 307.369 130.306 307.507 130.609 307.744C130.912 307.981 131.136 308.305 131.249 308.673L185.013 466.824C185.24 467.56 185.616 468.242 186.116 468.828C186.617 469.414 187.233 469.891 187.926 470.231C188.618 470.571 189.373 470.766 190.144 470.803C190.915 470.841 191.686 470.721 192.409 470.451L210.438 463.706C211.416 463.343 212.275 462.717 212.918 461.896C213.561 461.076 213.963 460.094 214.08 459.059C222.191 388.569 151.462 210.643 150.746 208.854L150.548 208.359L86.0727 222.588L85.9385 222.733C60.215 250.73 39.0711 427.31 35.0935 462.423C34.9453 463.692 35.2346 464.973 35.9137 466.055C36.5928 467.137 37.6212 467.957 38.8295 468.378L54.7434 473.993C55.3443 474.205 55.9771 474.314 56.6147 474.314Z" fill="#2F2E41"/>
<path d="M56.6147 474.314C57.718 474.314 58.7976 473.993 59.7215 473.392C60.6454 472.79 61.3736 471.933 61.8174 470.925L127.717 308.474C127.871 308.122 128.13 307.825 128.458 307.624C128.786 307.422 129.168 307.326 129.552 307.347C129.937 307.369 130.306 307.507 130.609 307.744C130.912 307.981 131.136 308.305 131.249 308.673L185.013 466.824C185.24 467.56 185.616 468.242 186.116 468.828C186.617 469.414 187.233 469.891 187.926 470.231C188.618 470.571 189.373 470.766 190.144 470.803C190.915 470.841 191.686 470.721 192.409 470.451L210.438 463.706C211.416 463.343 212.275 462.717 212.918 461.896C213.561 461.076 213.963 460.094 214.08 459.059C222.191 388.569 151.462 210.643 150.746 208.854L150.548 208.359L86.0727 222.588L85.9385 222.733C60.215 250.73 39.0711 427.31 35.0935 462.423C34.9453 463.692 35.2346 464.973 35.9137 466.055C36.5928 467.137 37.6212 467.957 38.8295 468.378L54.7434 473.993C55.3443 474.205 55.9771 474.314 56.6147 474.314Z" fill="#2F2E41"/>
<path d="M112.167 228.315C127.789 228.315 145.205 225.207 150.565 212.382L150.689 212.088L150.522 211.815C146.291 204.888 140.698 193.073 143.704 190.855C149.625 186.487 152.499 179.302 152.244 169.498C151.69 148.215 137.154 129.319 116.074 122.478H116.073C110.189 120.6 104.201 119.061 98.1391 117.872C93.7198 116.982 89.1577 117.08 84.7808 118.158C80.4039 119.236 76.3207 121.268 72.8245 124.108C69.2843 126.967 66.4226 130.572 64.4451 134.665C62.4676 138.758 61.4233 143.237 61.3873 147.78C61.1662 170.524 64.676 202.202 82.6525 223.95C83.4951 224.959 84.6674 225.639 85.9632 225.871C94.6118 227.431 103.379 228.249 112.167 228.315Z" fill="#CCCCCC"/>
<path d="M112.167 228.315C127.789 228.315 145.205 225.207 150.565 212.382L150.689 212.088L150.522 211.815C146.291 204.888 140.698 193.073 143.704 190.855C149.625 186.487 152.499 179.302 152.244 169.498C151.69 148.215 137.154 129.319 116.074 122.478H116.073C110.189 120.6 104.201 119.061 98.1391 117.872C93.7198 116.982 89.1577 117.08 84.7808 118.158C80.4039 119.236 76.3207 121.268 72.8245 124.108C69.2843 126.967 66.4226 130.572 64.4451 134.665C62.4676 138.758 61.4233 143.237 61.3873 147.78C61.1662 170.524 64.676 202.202 82.6525 223.95C83.4951 224.959 84.6674 225.639 85.9632 225.871C94.6118 227.431 103.379 228.249 112.167 228.315Z" fill="#CCCCCC"/>
<path d="M117.978 227.463C117.128 224.421 115.109 221.836 112.359 220.271C109.609 218.705 106.352 218.286 103.294 219.103C102.669 219.277 102.06 219.502 101.473 219.776L81.3715 201.525L67.3918 210.921L96.1381 236.3C97.4362 238.635 99.4797 240.469 101.943 241.512C104.407 242.554 107.15 242.745 109.735 242.053C111.24 241.642 112.649 240.937 113.88 239.98C115.112 239.022 116.14 237.83 116.907 236.473C117.673 235.117 118.163 233.622 118.346 232.075C118.53 230.529 118.405 228.961 117.978 227.463V227.463Z" fill="#FFB8B8"/>
<path d="M117.978 227.463C117.128 224.421 115.109 221.836 112.359 220.271C109.609 218.705 106.352 218.286 103.294 219.103C102.669 219.277 102.06 219.502 101.473 219.776L81.3715 201.525L67.3918 210.921L96.1381 236.3C97.4362 238.635 99.4797 240.469 101.943 241.512C104.407 242.554 107.15 242.745 109.735 242.053C111.24 241.642 112.649 240.937 113.88 239.98C115.112 239.022 116.14 237.83 116.907 236.473C117.673 235.117 118.163 233.622 118.346 232.075C118.53 230.529 118.405 228.961 117.978 227.463V227.463Z" fill="#FFB8B8"/>
<path d="M84.5559 227.695C85.8602 227.695 87.1245 227.245 88.1338 226.421L96.061 219.959C96.7217 219.42 97.2518 218.739 97.6115 217.967C97.9712 217.195 98.1512 216.352 98.138 215.5C98.1248 214.649 97.9188 213.812 97.5353 213.051C97.1519 212.291 96.6009 211.626 95.9237 211.108L62.6761 185.669C62.282 185.365 62.0236 184.92 61.9568 184.428C61.8901 183.936 62.0205 183.437 62.3197 183.041L82.8408 155.975C85.225 152.841 86.4208 148.966 86.2166 145.037C86.0124 141.108 84.4212 137.377 81.7249 134.506V134.506C78.8852 131.446 74.9963 129.563 70.8299 129.231C66.6635 128.899 62.5241 130.141 59.233 132.711L59.1031 132.848L37.6746 163.459C35.3574 165.272 33.4916 167.594 32.2228 170.245C30.954 172.896 30.3167 175.804 30.3605 178.741C30.4043 181.678 31.1282 184.566 32.4755 187.178C33.8229 189.79 35.7571 192.056 38.1274 193.798L81.1877 226.588C82.1628 227.307 83.3434 227.695 84.5559 227.695Z" fill="#CCCCCC"/>
<path d="M84.5559 227.695C85.8602 227.695 87.1245 227.245 88.1338 226.421L96.061 219.959C96.7217 219.42 97.2518 218.739 97.6115 217.967C97.9712 217.195 98.1512 216.352 98.138 215.5C98.1248 214.649 97.9188 213.812 97.5353 213.051C97.1519 212.291 96.6009 211.626 95.9237 211.108L62.6761 185.669C62.282 185.365 62.0236 184.92 61.9568 184.428C61.8901 183.936 62.0205 183.437 62.3197 183.041L82.8408 155.975C85.225 152.841 86.4208 148.966 86.2166 145.037C86.0124 141.108 84.4212 137.377 81.7249 134.506V134.506C78.8852 131.446 74.9963 129.563 70.8299 129.231C66.6635 128.899 62.5241 130.141 59.233 132.711L59.1031 132.848L37.6746 163.459C35.3574 165.272 33.4916 167.594 32.2228 170.245C30.954 172.896 30.3167 175.804 30.3605 178.741C30.4043 181.678 31.1282 184.566 32.4755 187.178C33.8229 189.79 35.7571 192.056 38.1274 193.798L81.1877 226.588C82.1628 227.307 83.3434 227.695 84.5559 227.695Z" fill="#CCCCCC"/>
<path d="M128.146 71.5445V56.2577L100.79 44.3406L74.7064 56.2577V71.5445C74.7064 72.2099 74.9713 72.848 75.443 73.3185C75.9146 73.789 76.5543 74.0533 77.2212 74.0533H125.631C126.298 74.0533 126.938 73.789 127.409 73.3185C127.881 72.848 128.146 72.2099 128.146 71.5445Z" fill="#2F2E41"/>
<path d="M128.146 71.5445V56.2577L100.79 44.3406L74.7064 56.2577V71.5445C74.7064 72.2099 74.9713 72.848 75.443 73.3185C75.9146 73.789 76.5543 74.0533 77.2212 74.0533H125.631C126.298 74.0533 126.938 73.789 127.409 73.3185C127.881 72.848 128.146 72.2099 128.146 71.5445Z" fill="#2F2E41"/>
<path d="M102.046 34.9983C106.068 22.1547 97.6208 7.4354 85.1329 2.35158C72.645 -2.73224 57.7048 0.821508 47.1675 9.22074C36.6302 17.62 30.0925 30.2005 26.6284 43.2049C23.1643 56.2094 22.5068 69.7699 21.8673 83.2106C6.52423 86.0223 -3.91291 104.178 1.40219 118.809C6.71729 133.441 26.39 140.71 39.9764 133.063C53.5627 125.415 57.4978 104.857 47.6923 92.753C43.0525 87.0256 40.4607 79.9176 40.3274 72.5548C40.1941 65.1919 42.5268 57.9952 46.9562 52.1043C51.3855 46.2135 57.6583 41.9653 64.7809 40.0326C71.9036 38.0999 79.469 38.5932 86.2789 41.4344C93.8407 44.5892 103.329 36.3923 102.046 34.9983Z" fill="#2F2E41"/>
<path d="M102.046 34.9983C106.068 22.1547 97.6208 7.4354 85.1329 2.35158C72.645 -2.73224 57.7048 0.821508 47.1675 9.22074C36.6302 17.62 30.0925 30.2005 26.6284 43.2049C23.1643 56.2094 22.5068 69.7699 21.8673 83.2106C6.52423 86.0223 -3.91291 104.178 1.40219 118.809C6.71729 133.441 26.39 140.71 39.9764 133.063C53.5627 125.415 57.4978 104.857 47.6923 92.753C43.0525 87.0256 40.4607 79.9176 40.3274 72.5548C40.1941 65.1919 42.5268 57.9952 46.9562 52.1043C51.3855 46.2135 57.6583 41.9653 64.7809 40.0326C71.9036 38.0999 79.469 38.5932 86.2789 41.4344C93.8407 44.5892 103.329 36.3923 102.046 34.9983Z" fill="#2F2E41"/>
<path d="M274.445 126.802C292.815 126.682 310.955 122.718 327.694 115.167C328.69 114.724 329.536 114.002 330.128 113.088C330.72 112.173 331.033 111.107 331.028 110.019V64.335C331.026 62.8384 330.43 61.4035 329.369 60.3453C328.308 59.287 326.87 58.6917 325.37 58.6901H223.521C222.02 58.6918 220.582 59.287 219.521 60.3453C218.461 61.4036 217.864 62.8384 217.862 64.335V110.019C217.858 111.107 218.171 112.174 218.763 113.088C219.355 114.002 220.2 114.724 221.197 115.167C237.935 122.718 256.075 126.682 274.445 126.802V126.802Z" fill="#FF41A1"/>
<path d="M274.445 126.802C292.815 126.682 310.955 122.718 327.694 115.167C328.69 114.724 329.536 114.002 330.128 113.088C330.72 112.173 331.033 111.107 331.028 110.019V64.335C331.026 62.8384 330.43 61.4035 329.369 60.3453C328.308 59.287 326.87 58.6917 325.37 58.6901H223.521C222.02 58.6918 220.582 59.287 219.521 60.3453C218.461 61.4036 217.864 62.8384 217.862 64.335V110.019C217.858 111.107 218.171 112.174 218.763 113.088C219.355 114.002 220.2 114.724 221.197 115.167C237.935 122.718 256.075 126.682 274.445 126.802V126.802Z" fill="#F60069"/>
<path d="M274.459 89.7924C275.214 89.7931 275.962 89.6431 276.658 89.3514L357.423 55.3566C358.464 54.9183 359.35 54.1787 359.967 53.2334C360.583 52.288 360.901 51.1801 360.881 50.0525C360.86 48.9249 360.501 47.8294 359.85 46.9072C359.2 45.985 358.287 45.2783 357.23 44.8783L276.464 14.3105C275.163 13.8159 273.725 13.819 272.426 14.3191L192.743 44.8868C191.692 45.29 190.785 45.9969 190.139 46.9169C189.493 47.8369 189.137 48.9283 189.116 50.0514C189.095 51.1746 189.411 52.2783 190.022 53.2215C190.634 54.1648 191.514 54.9045 192.549 55.3462L272.234 89.3404C272.937 89.6393 273.694 89.7931 274.459 89.7924V89.7924Z" fill="#FF41A1"/>
<path d="M274.459 89.7924C275.214 89.7931 275.962 89.6431 276.658 89.3514L357.423 55.3566C358.464 54.9183 359.35 54.1787 359.967 53.2334C360.583 52.288 360.901 51.1801 360.881 50.0525C360.86 48.9249 360.501 47.8294 359.85 46.9072C359.2 45.985 358.287 45.2783 357.23 44.8783L276.464 14.3105C275.163 13.8159 273.725 13.819 272.426 14.3191L192.743 44.8868C191.692 45.29 190.785 45.9969 190.139 46.9169C189.493 47.8369 189.137 48.9283 189.116 50.0514C189.095 51.1746 189.411 52.2783 190.022 53.2215C190.634 54.1648 191.514 54.9045 192.549 55.3462L272.234 89.3404C272.937 89.6393 273.694 89.7931 274.459 89.7924V89.7924Z" fill="#F60069"/>
<path d="M321.597 118.276C317.431 118.276 314.053 114.906 314.053 110.749C314.053 106.592 317.431 103.222 321.597 103.222C325.764 103.222 329.142 106.592 329.142 110.749C329.142 114.906 325.764 118.276 321.597 118.276Z" fill="#3F3D56"/>
<path d="M321.597 118.276C317.431 118.276 314.053 114.906 314.053 110.749C314.053 106.592 317.431 103.223 321.597 103.223C325.764 103.223 329.142 106.592 329.142 110.749C329.142 114.906 325.764 118.276 321.597 118.276Z" fill="#3F3D56"/>
<path opacity="0.2" d="M192.273 50.5211L271.958 84.5153C272.579 84.7803 273.248 84.9177 273.923 84.9194C274.599 84.921 275.268 84.7868 275.891 84.5248L356.656 50.531C357.67 50.1143 358.516 49.3723 359.061 48.4222C359.417 49.0383 359.637 49.7229 359.708 50.4306C359.779 51.1383 359.697 51.8529 359.47 52.5269C359.243 53.2009 358.874 53.8189 358.389 54.3399C357.904 54.8609 357.313 55.273 356.656 55.5488L275.891 89.5425C275.268 89.8045 274.599 89.9387 273.923 89.9371C273.248 89.9355 272.579 89.798 271.958 89.533L192.273 55.5388C191.619 55.2606 191.032 54.8473 190.55 54.326C190.069 53.8048 189.703 53.1875 189.478 52.5149C189.253 51.8424 189.173 51.1298 189.244 50.4243C189.316 49.7188 189.536 49.0364 189.891 48.4221C190.431 49.3646 191.269 50.1025 192.273 50.5211Z" fill="black"/>
<path opacity="0.2" d="M192.273 50.5211L271.958 84.5153C272.579 84.7803 273.248 84.9177 273.923 84.9194C274.599 84.921 275.268 84.7868 275.891 84.5248L356.656 50.531C357.67 50.1143 358.516 49.3723 359.061 48.4222C359.417 49.0383 359.637 49.7229 359.708 50.4306C359.779 51.1383 359.697 51.8529 359.47 52.5269C359.243 53.2009 358.874 53.8189 358.389 54.3399C357.904 54.8609 357.313 55.273 356.656 55.5488L275.891 89.5425C275.268 89.8045 274.599 89.9387 273.923 89.9371C273.248 89.9355 272.579 89.798 271.958 89.533L192.273 55.5388C191.619 55.2606 191.032 54.8473 190.55 54.326C190.069 53.8048 189.703 53.1875 189.478 52.5149C189.253 51.8424 189.173 51.1298 189.244 50.4243C189.316 49.7188 189.536 49.0364 189.891 48.4221C190.431 49.3646 191.269 50.1025 192.273 50.5211Z" fill="black"/>
<path d="M320.963 110.72C320.63 110.72 320.31 110.588 320.074 110.352C319.838 110.117 319.706 109.798 319.706 109.465V67.49L278.235 52.4178C277.902 52.4228 277.58 52.2954 277.341 52.0636C277.102 51.8319 276.964 51.5148 276.959 51.1821C276.954 50.8494 277.082 50.5283 277.314 50.2896C277.547 50.0508 277.865 49.9139 278.198 49.9089L319.668 64.9812C320.002 64.9735 320.334 65.0335 320.644 65.1575C320.954 65.2816 321.235 65.467 321.471 65.7027C321.709 65.9355 321.898 66.2137 322.027 66.5207C322.156 66.8276 322.222 67.1573 322.221 67.49V109.465C322.221 109.798 322.088 110.117 321.852 110.352C321.617 110.588 321.297 110.72 320.963 110.72V110.72Z" fill="#3F3D56"/>
<path d="M320.963 110.72C320.63 110.72 320.31 110.588 320.074 110.352C319.838 110.117 319.706 109.798 319.706 109.465V67.49L278.235 52.4178C277.902 52.4228 277.58 52.2954 277.341 52.0636C277.102 51.8319 276.964 51.5148 276.959 51.1821C276.954 50.8494 277.082 50.5283 277.314 50.2896C277.547 50.0508 277.865 49.9139 278.198 49.9089L319.668 64.9812C320.002 64.9735 320.334 65.0335 320.644 65.1575C320.954 65.2816 321.235 65.467 321.471 65.7027C321.709 65.9355 321.898 66.2137 322.027 66.5207C322.156 66.8276 322.222 67.1573 322.221 67.49V109.465C322.221 109.798 322.088 110.117 321.852 110.352C321.617 110.588 321.297 110.72 320.963 110.72V110.72Z" fill="#3F3D56"/>
</svg>
