<svg width="60" height="60" viewBox="0 0 60 60" fill="none" xmlns="http://www.w3.org/2000/svg">
<path d="M21.9832 22.6392H15.9607C15.6934 22.6392 15.4768 22.8563 15.4768 23.1241V42.5147C15.4768 42.7826 15.6934 42.9996 15.9607 42.9996H21.9832C22.2505 42.9996 22.4671 42.7826 22.4671 42.5147V23.1241C22.4671 22.8563 22.2505 22.6392 21.9832 22.6392Z" fill="#F60069"/>
<path d="M18.9741 13C16.7828 13 15 14.7848 15 16.9785C15 19.1733 16.7828 20.9587 18.9741 20.9587C21.1637 20.9587 22.945 19.1732 22.945 16.9785C22.9451 14.7848 21.1637 13 18.9741 13Z" fill="#F60069"/>
<path d="M37.302 22.1575C34.8832 22.1575 33.0951 23.1996 32.0105 24.3837V23.1243C32.0105 22.8566 31.7939 22.6394 31.5266 22.6394H25.759C25.4917 22.6394 25.2751 22.8566 25.2751 23.1243V42.5149C25.2751 42.7828 25.4917 42.9999 25.759 42.9999H31.7684C32.0357 42.9999 32.2523 42.7828 32.2523 42.5149V32.9211C32.2523 29.6882 33.1285 28.4287 35.3771 28.4287C37.8261 28.4287 38.0207 30.4478 38.0207 33.0874V42.515C38.0207 42.7829 38.2372 43 38.5045 43H44.5161C44.7834 43 45 42.7829 45 42.515V31.8789C45 27.0717 44.0854 22.1575 37.302 22.1575Z" fill="#F60069"/>
<circle cx="30" cy="30" r="29.5" stroke="#FFC1EA"/>
</svg>
