<svg width="60" height="60" viewBox="0 0 60 60" fill="none" xmlns="http://www.w3.org/2000/svg">
<path d="M37.1985 32.2385C37.14 32.2105 34.9529 31.1335 34.5643 30.9936C34.4056 30.9367 34.2357 30.881 34.0549 30.881C33.7596 30.881 33.5115 31.0282 33.3182 31.3173C33.0998 31.642 32.4384 32.4151 32.234 32.6461C32.2073 32.6766 32.1709 32.713 32.1491 32.713C32.1295 32.713 31.791 32.5736 31.6886 32.5291C29.3424 31.51 27.5616 29.0592 27.3174 28.6459C27.2826 28.5865 27.2811 28.5596 27.2808 28.5596C27.2894 28.5281 27.3683 28.449 27.409 28.4082C27.5281 28.2903 27.6572 28.135 27.7821 27.9847C27.8412 27.9135 27.9004 27.8422 27.9585 27.775C28.1397 27.5642 28.2204 27.4006 28.3139 27.211L28.3629 27.1125C28.5912 26.6589 28.3962 26.2761 28.3332 26.1525C28.2814 26.0491 27.358 23.8203 27.2598 23.5862C27.0237 23.0211 26.7117 22.7581 26.2782 22.7581C26.2379 22.7581 26.2782 22.7581 26.1095 22.7652C25.904 22.7738 24.7854 22.9211 24.2908 23.2329C23.7662 23.5636 22.8789 24.6177 22.8789 26.4714C22.8789 28.1398 23.9377 29.7151 24.3923 30.3143C24.4035 30.3294 24.4243 30.36 24.4544 30.4041C26.1953 32.9465 28.3655 34.8306 30.5655 35.7095C32.6835 36.5555 33.6865 36.6533 34.2567 36.6533H34.2568C34.4964 36.6533 34.6882 36.6345 34.8574 36.6179L34.9647 36.6076C35.6964 36.5428 37.3043 35.7096 37.6701 34.6932C37.9582 33.8926 38.0342 33.018 37.8425 32.7005C37.7112 32.4847 37.4849 32.3761 37.1985 32.2385Z" fill="#F60069"/>
<path d="M30.2663 15C22.1413 15 15.5312 21.5605 15.5312 29.6243C15.5312 32.2325 16.2292 34.7855 17.5514 37.0199L15.0206 44.4853C14.9735 44.6245 15.0085 44.7784 15.1115 44.8832C15.1858 44.9591 15.2866 45 15.3896 45C15.429 45 15.4688 44.9941 15.5075 44.9817L23.292 42.508C25.4222 43.6462 27.8298 44.247 30.2664 44.247C38.3905 44.2471 45 37.6873 45 29.6243C45 21.5605 38.3905 15 30.2663 15ZM30.2663 41.2007C27.9735 41.2007 25.7528 40.5387 23.8439 39.2861C23.7797 39.2439 23.7052 39.2223 23.6302 39.2223C23.5906 39.2223 23.5509 39.2283 23.5122 39.2406L19.6127 40.4801L20.8715 36.7663C20.9122 36.6461 20.8919 36.5135 20.8169 36.411C19.3632 34.4248 18.5948 32.0781 18.5948 29.6243C18.5948 23.2403 23.8306 18.0464 30.2662 18.0464C36.701 18.0464 41.9362 23.2403 41.9362 29.6243C41.9363 36.0076 36.7012 41.2007 30.2663 41.2007Z" fill="#F60069"/>
<circle cx="30" cy="30" r="29.5" stroke="#FFC1EA"/>
</svg>
